<svg viewBox="-260.0 -260.0 520 520" xmlns="http://www.w3.org/2000/svg" width="100%" height="100%"><defs><linearGradient id="swirlBlue" x1="0%" y1="0%" x2="100%" y2="100%"><stop offset="0%" stop-color="#3E7CB1"/><stop offset="100%" stop-color="#8FC1E3"/></linearGradient></defs><path d="M 30.0,0.0 L 31.8,1.6 L 33.4,3.3 L 34.8,5.2 L 35.9,7.1 L 36.6,9.2 L 36.9,11.3 L 36.8,13.3 L 36.2,15.2 L 35.3,16.9 L 33.9,18.5 L 32.2,19.8 L 30.1,20.8 L 27.9,21.5 L 25.5,21.9 L 23.0,22.0 L 20.5,21.9 L 18.0,21.5 L 15.6,21.0 L 13.4,20.4 L 11.4,19.7 L 9.6,19.0 L 8.0,18.4 L 6.6,18.0 L 5.3,17.7 L 4.2,17.6 L 3.1,17.8 L 2.0,18.3 L 1.0,19.0 L -0.2,19.9 L -1.5,21.0 L -2.9,22.2 L -4.5,23.5 L -6.3,24.8 L -8.3,26.0 L -10.5,27.2 L -12.8,28.1 L -15.2,28.7 L -17.6,29.1 L -20.0,29.2 L -22.3,28.8 L -24.4,28.2 L -26.2,27.1 L -27.8,25.8 L -29.1,24.2 L -30.0,22.3 L -30.5,20.3 L -30.6,18.1 L -30.3,15.9 L -29.8,13.7 L -28.9,11.6 L -27.9,9.6 L -26.7,7.7 L -25.4,6.0 L -24.1,4.4 L -22.9,3.0 L -21.8,1.8 L -20.9,0.7 L -20.3,-0.3 L -20.0,-1.3 L -19.9,-2.3 L -20.1,-3.3 L -20.6,-4.4 L -21.2,-5.7 L -22.1,-7.1 L -23.0,-8.7 L -23.9,-10.5 L -24.8,-12.4 L -25.6,-14.5 L -26.2,-16.7 L -26.5,-18.9 L -26.6,-21.2 L -26.3,-23.3 L -25.6,-25.4 L -24.6,-27.3 L -23.3,-28.9 L -21.7,-30.2 L -19.8,-31.2 L -17.7,-31.8 L -15.5,-32.0 L -13.2,-31.9 L -10.9,-31.4 L -8.6,-30.6 L -6.4,-29.5 L -4.3,-28.1 L -2.5,-26.6 L -0.8,-25.1 L 0.7,-23.5 L 1.9,-22.0 L 3.1,-20.5 L 4.1,-19.3" fill="none" stroke="url(#swirlBlue)" stroke-width="1.6" opacity="0.65"/><path d="M 43.9,4.0 L 45.3,6.3 L 46.3,8.8 L 46.8,11.4 L 46.9,13.9 L 46.6,16.4 L 45.7,18.7 L 44.4,20.9 L 42.6,22.8 L 40.5,24.4 L 38.0,25.7 L 35.3,26.7 L 32.5,27.4 L 29.5,27.8 L 26.5,27.9 L 23.6,27.7 L 20.8,27.4 L 18.2,27.0 L 15.7,26.5 L 13.5,26.0 L 11.4,25.6 L 9.6,25.4 L 7.9,25.3 L 6.3,25.5 L 4.8,25.9 L 3.2,26.6 L 1.7,27.4 L 0.0,28.5 L -1.8,29.8 L -3.8,31.1 L -5.9,32.5 L -8.3,33.9 L -10.9,35.1 L -13.6,36.2 L -16.4,37.0 L -19.4,37.5 L -22.3,37.6 L -25.1,37.4 L -27.9,36.8 L -30.4,35.8 L -32.6,34.4 L -34.5,32.6 L -36.1,30.5 L -37.2,28.2 L -37.9,25.7 L -38.2,23.1 L -38.2,20.4 L -37.7,17.8 L -37.0,15.2 L -36.0,12.7 L -34.9,10.4 L -33.7,8.2 L -32.5,6.2 L -31.4,4.4 L -30.5,2.8 L -29.7,1.2 L -29.2,-0.2 L -29.0,-1.6 L -29.0,-3.1 L -29.3,-4.6 L -29.8,-6.2 L -30.5,-7.9 L -31.4,-9.8 L -32.3,-11.9 L -33.2,-14.2 L -33.9,-16.6 L -34.6,-19.2 L -34.9,-21.8 L -35.0,-24.5 L -34.7,-27.2 L -34.1,-29.7 L -33.0,-32.1 L -31.6,-34.3 L -29.8,-36.2 L -27.6,-37.7 L -25.2,-38.9 L -22.6,-39.6 L -19.8,-40.0 L -16.9,-39.9 L -14.0,-39.4 L -11.2,-38.6 L -8.5,-37.4 L -5.9,-36.1 L -3.6,-34.6 L -1.4,-33.0 L 0.6,-31.3 L 2.3,-29.8 L 4.0,-28.3 L 5.5,-27.1 L 6.9,-26.0 L 8.3,-25.2" fill="none" stroke="url(#swirlBlue)" stroke-width="1.1" opacity="0.63"/><path d="M 56.7,10.3 L 57.1,13.4 L 57.0,16.4 L 56.4,19.3 L 55.2,22.1 L 53.5,24.6 L 51.4,26.9 L 48.8,28.9 L 46.0,30.5 L 42.8,31.8 L 39.5,32.7 L 36.1,33.4 L 32.7,33.7 L 29.3,33.8 L 26.1,33.7 L 23.0,33.5 L 20.1,33.2 L 17.5,32.9 L 15.0,32.8 L 12.7,32.8 L 10.6,33.0 L 8.6,33.4 L 6.6,34.0 L 4.6,34.9 L 2.6,36.0 L 0.4,37.3 L -1.9,38.7 L -4.5,40.1 L -7.2,41.6 L -10.1,43.0 L -13.2,44.3 L -16.5,45.3 L -19.9,46.0 L -23.4,46.3 L -26.8,46.2 L -30.1,45.7 L -33.3,44.8 L -36.2,43.4 L -38.8,41.6 L -41.1,39.5 L -42.9,37.0 L -44.3,34.2 L -45.2,31.2 L -45.7,28.2 L -45.8,25.0 L -45.5,21.9 L -44.9,18.9 L -44.1,15.9 L -43.1,13.2 L -42.0,10.6 L -40.9,8.2 L -39.9,6.0 L -39.1,3.9 L -38.5,1.9 L -38.1,0.0 L -38.0,-1.8 L -38.2,-3.7 L -38.6,-5.7 L -39.2,-7.8 L -40.0,-10.0 L -40.8,-12.4 L -41.7,-15.0 L -42.6,-17.8 L -43.2,-20.7 L -43.7,-23.8 L -43.8,-26.9 L -43.6,-30.0 L -43.0,-33.1 L -42.0,-36.0 L -40.5,-38.8 L -38.6,-41.2 L -36.3,-43.4 L -33.7,-45.1 L -30.7,-46.4 L -27.6,-47.3 L -24.2,-47.7 L -20.8,-47.7 L -17.4,-47.2 L -14.0,-46.4 L -10.8,-45.3 L -7.7,-43.9 L -4.8,-42.4 L -2.1,-40.8 L 0.3,-39.1 L 2.6,-37.6 L 4.7,-36.1 L 6.7,-34.8 L 8.6,-33.8 L 10.5,-33.0 L 12.5,-32.4 L 14.6,-32.0" fill="none" stroke="url(#swirlBlue)" stroke-width="1.1" opacity="0.61"/><path d="M 67.1,18.7 L 66.2,22.1 L 64.7,25.3 L 62.7,28.2 L 60.2,30.9 L 57.2,33.2 L 53.9,35.1 L 50.3,36.7 L 46.5,37.9 L 42.7,38.8 L 38.8,39.4 L 35.1,39.7 L 31.4,39.8 L 27.9,39.8 L 24.6,39.8 L 21.6,39.8 L 18.7,39.9 L 16.0,40.1 L 13.5,40.6 L 11.0,41.2 L 8.6,42.1 L 6.2,43.3 L 3.6,44.6 L 0.9,46.1 L -1.9,47.7 L -5.0,49.3 L -8.2,50.8 L -11.7,52.3 L -15.4,53.5 L -19.3,54.5 L -23.2,55.0 L -27.2,55.2 L -31.1,54.9 L -35.0,54.2 L -38.6,52.9 L -41.9,51.2 L -44.9,49.0 L -47.4,46.4 L -49.6,43.5 L -51.2,40.2 L -52.3,36.8 L -53.0,33.3 L -53.3,29.7 L -53.1,26.1 L -52.7,22.6 L -51.9,19.3 L -51.1,16.1 L -50.1,13.1 L -49.2,10.3 L -48.4,7.6 L -47.7,5.1 L -47.3,2.7 L -47.1,0.4 L -47.1,-1.9 L -47.4,-4.2 L -48.0,-6.7 L -48.7,-9.2 L -49.6,-12.0 L -50.5,-14.9 L -51.3,-18.0 L -52.1,-21.3 L -52.7,-24.7 L -53.0,-28.2 L -52.9,-31.8 L -52.4,-35.4 L -51.5,-38.9 L -50.1,-42.2 L -48.2,-45.3 L -45.8,-48.0 L -43.0,-50.4 L -39.9,-52.4 L -36.4,-53.8 L -32.6,-54.8 L -28.7,-55.3 L -24.8,-55.4 L -20.8,-55.0 L -16.9,-54.2 L -13.1,-53.1 L -9.6,-51.7 L -6.2,-50.1 L -3.0,-48.5 L -0.1,-46.9 L 2.7,-45.3 L 5.3,-43.9 L 7.7,-42.6 L 10.2,-41.6 L 12.6,-40.8 L 15.1,-40.2 L 17.7,-39.9 L 20.4,-39.7 L 23.4,-39.6" fill="none" stroke="url(#swirlBlue)" stroke-width="1.6" opacity="0.59"/><path d="M 74.3,28.3 L 71.9,31.6 L 69.0,34.6 L 65.6,37.3 L 61.9,39.6 L 57.8,41.4 L 53.6,42.9 L 49.4,44.1 L 45.1,44.9 L 40.9,45.4 L 36.8,45.8 L 33.0,46.1 L 29.3,46.3 L 25.8,46.6 L 22.6,47.0 L 19.5,47.5 L 16.5,48.2 L 13.7,49.2 L 10.8,50.3 L 7.9,51.7 L 4.8,53.3 L 1.7,55.0 L -1.7,56.7 L -5.3,58.5 L -9.2,60.2 L -13.2,61.7 L -17.5,62.9 L -21.9,63.8 L -26.4,64.2 L -30.9,64.2 L -35.3,63.7 L -39.6,62.7 L -43.7,61.1 L -47.4,59.0 L -50.7,56.4 L -53.6,53.4 L -56.0,50.0 L -57.9,46.3 L -59.3,42.5 L -60.1,38.5 L -60.6,34.4 L -60.6,30.4 L -60.3,26.5 L -59.7,22.7 L -59.0,19.1 L -58.2,15.7 L -57.5,12.5 L -56.8,9.4 L -56.3,6.5 L -56.1,3.7 L -56.1,1.0 L -56.3,-1.8 L -56.8,-4.6 L -57.5,-7.5 L -58.3,-10.6 L -59.3,-13.8 L -60.2,-17.2 L -61.1,-20.8 L -61.8,-24.6 L -62.3,-28.6 L -62.4,-32.6 L -62.1,-36.6 L -61.4,-40.6 L -60.1,-44.5 L -58.3,-48.2 L -56.0,-51.6 L -53.1,-54.7 L -49.8,-57.3 L -46.1,-59.5 L -42.1,-61.1 L -37.8,-62.2 L -33.4,-62.8 L -28.9,-62.9 L -24.4,-62.6 L -19.9,-61.8 L -15.7,-60.7 L -11.6,-59.3 L -7.7,-57.8 L -4.1,-56.2 L -0.6,-54.6 L 2.6,-53.1 L 5.7,-51.7 L 8.6,-50.5 L 11.6,-49.5 L 14.5,-48.7 L 17.5,-48.2 L 20.7,-47.9 L 24.0,-47.7 L 27.5,-47.6 L 31.2,-47.5 L 35.2,-47.4" fill="none" stroke="url(#swirlBlue)" stroke-width="1.1" opacity="0.57"/><path d="M 77.7,38.2 L 74.0,41.2 L 69.8,43.8 L 65.4,46.0 L 60.8,47.8 L 56.1,49.2 L 51.4,50.2 L 46.8,51.1 L 42.4,51.7 L 38.1,52.3 L 34.1,52.8 L 30.2,53.3 L 26.6,54.0 L 23.1,54.8 L 19.8,55.8 L 16.5,57.1 L 13.2,58.5 L 9.8,60.2 L 6.3,62.0 L 2.6,64.0 L -1.3,65.9 L -5.5,67.8 L -9.9,69.6 L -14.5,71.1 L -19.3,72.3 L -24.3,73.1 L -29.3,73.5 L -34.4,73.3 L -39.3,72.5 L -44.1,71.2 L -48.6,69.3 L -52.7,66.8 L -56.4,63.8 L -59.6,60.4 L -62.3,56.6 L -64.4,52.5 L -66.0,48.2 L -67.1,43.7 L -67.7,39.2 L -67.9,34.8 L -67.7,30.5 L -67.4,26.3 L -66.8,22.3 L -66.2,18.4 L -65.7,14.8 L -65.2,11.4 L -65.0,8.0 L -64.9,4.8 L -65.1,1.6 L -65.5,-1.6 L -66.2,-4.8 L -67.1,-8.2 L -68.1,-11.8 L -69.1,-15.5 L -70.1,-19.5 L -71.0,-23.6 L -71.7,-27.9 L -72.0,-32.3 L -72.0,-36.8 L -71.5,-41.3 L -70.4,-45.8 L -68.8,-50.1 L -66.6,-54.1 L -63.8,-57.9 L -60.5,-61.2 L -56.7,-64.1 L -52.5,-66.4 L -47.9,-68.2 L -43.1,-69.5 L -38.1,-70.2 L -33.1,-70.3 L -28.1,-70.0 L -23.1,-69.3 L -18.3,-68.2 L -13.7,-66.9 L -9.4,-65.4 L -5.2,-63.8 L -1.3,-62.3 L 2.4,-60.8 L 5.9,-59.5 L 9.4,-58.4 L 12.8,-57.5 L 16.3,-56.8 L 19.8,-56.3 L 23.5,-56.0 L 27.4,-55.8 L 31.5,-55.7 L 35.8,-55.6 L 40.3,-55.4 L 44.9,-55.0 L 49.7,-54.4" fill="none" stroke="url(#swirlBlue)" stroke-width="1.1" opacity="0.54"/><path d="M 77.8,47.9 L 72.9,50.4 L 67.9,52.4 L 62.8,54.1 L 57.8,55.5 L 52.8,56.6 L 48.0,57.5 L 43.4,58.3 L 39.0,59.1 L 34.8,60.0 L 30.8,61.0 L 26.9,62.1 L 23.2,63.5 L 19.5,65.0 L 15.7,66.8 L 11.9,68.8 L 7.9,70.9 L 3.7,73.0 L -0.8,75.2 L -5.5,77.2 L -10.4,79.1 L -15.6,80.7 L -21.0,81.9 L -26.6,82.6 L -32.1,82.8 L -37.7,82.4 L -43.1,81.4 L -48.4,79.8 L -53.3,77.5 L -57.8,74.7 L -61.9,71.3 L -65.4,67.5 L -68.3,63.2 L -70.7,58.7 L -72.6,53.9 L -73.8,49.0 L -74.6,44.1 L -75.0,39.3 L -75.1,34.5 L -74.9,29.9 L -74.6,25.5 L -74.2,21.3 L -73.9,17.3 L -73.6,13.4 L -73.6,9.7 L -73.8,6.1 L -74.2,2.5 L -74.9,-1.2 L -75.8,-4.9 L -76.8,-8.8 L -78.0,-12.8 L -79.1,-17.1 L -80.2,-21.5 L -81.1,-26.2 L -81.7,-31.0 L -81.9,-35.9 L -81.7,-40.9 L -80.9,-45.9 L -79.6,-50.8 L -77.6,-55.5 L -75.0,-59.9 L -71.8,-63.9 L -68.0,-67.6 L -63.7,-70.7 L -59.0,-73.2 L -53.9,-75.2 L -48.5,-76.5 L -43.0,-77.3 L -37.4,-77.6 L -31.9,-77.3 L -26.4,-76.6 L -21.1,-75.6 L -16.0,-74.4 L -11.2,-72.9 L -6.6,-71.4 L -2.2,-70.0 L 2.0,-68.6 L 6.0,-67.3 L 10.0,-66.3 L 14.0,-65.5 L 17.9,-64.9 L 22.0,-64.5 L 26.3,-64.2 L 30.7,-64.1 L 35.4,-64.0 L 40.2,-63.8 L 45.3,-63.5 L 50.5,-63.0 L 55.8,-62.2 L 61.2,-61.0 L 66.4,-59.4" fill="none" stroke="url(#swirlBlue)" stroke-width="1.6" opacity="0.52"/><path d="M 75.1,56.9 L 69.6,58.9 L 64.2,60.6 L 58.9,62.0 L 53.7,63.2 L 48.7,64.3 L 44.0,65.5 L 39.5,66.6 L 35.1,68.0 L 30.9,69.4 L 26.7,71.1 L 22.6,73.0 L 18.4,75.1 L 14.1,77.4 L 9.6,79.8 L 4.9,82.2 L -0.0,84.5 L -5.3,86.7 L -10.8,88.7 L -16.6,90.3 L -22.5,91.5 L -28.6,92.1 L -34.8,92.2 L -40.8,91.6 L -46.8,90.3 L -52.5,88.4 L -57.8,85.8 L -62.7,82.6 L -67.1,78.8 L -71.0,74.5 L -74.2,69.9 L -76.9,64.9 L -78.9,59.7 L -80.4,54.4 L -81.4,49.1 L -82.0,43.8 L -82.3,38.7 L -82.3,33.7 L -82.2,28.9 L -82.1,24.3 L -82.0,19.9 L -82.0,15.7 L -82.3,11.5 L -82.7,7.5 L -83.4,3.4 L -84.3,-0.7 L -85.4,-4.9 L -86.7,-9.2 L -88.0,-13.8 L -89.2,-18.5 L -90.4,-23.5 L -91.3,-28.7 L -91.8,-34.0 L -92.0,-39.4 L -91.5,-44.9 L -90.5,-50.3 L -88.9,-55.6 L -86.5,-60.7 L -83.5,-65.5 L -79.9,-69.9 L -75.6,-73.7 L -70.8,-77.1 L -65.5,-79.8 L -59.9,-81.9 L -54.0,-83.4 L -47.9,-84.3 L -41.8,-84.7 L -35.8,-84.5 L -29.8,-83.9 L -24.0,-82.9 L -18.5,-81.7 L -13.1,-80.4 L -8.1,-79.0 L -3.2,-77.6 L 1.5,-76.3 L 6.0,-75.2 L 10.5,-74.3 L 14.9,-73.6 L 19.5,-73.1 L 24.1,-72.8 L 28.9,-72.6 L 33.9,-72.5 L 39.1,-72.4 L 44.6,-72.2 L 50.2,-71.8 L 56.0,-71.1 L 61.8,-70.1 L 67.7,-68.7 L 73.4,-66.8 L 78.9,-64.4 L 84.1,-61.5" fill="none" stroke="url(#swirlBlue)" stroke-width="1.1" opacity="0.50"/><path d="M 70.7,65.5 L 65.0,67.2 L 59.5,68.8 L 54.2,70.2 L 49.2,71.7 L 44.3,73.2 L 39.6,74.9 L 35.0,76.8 L 30.5,78.8 L 26.0,81.1 L 21.4,83.5 L 16.6,86.1 L 11.6,88.8 L 6.4,91.4 L 0.9,94.0 L -4.9,96.3 L -11.0,98.4 L -17.4,100.0 L -23.9,101.2 L -30.5,101.7 L -37.2,101.6 L -43.8,100.8 L -50.2,99.3 L -56.4,97.1 L -62.1,94.1 L -67.4,90.5 L -72.2,86.3 L -76.3,81.7 L -79.9,76.6 L -82.8,71.2 L -85.1,65.6 L -86.8,59.8 L -88.1,54.1 L -88.9,48.5 L -89.4,42.9 L -89.6,37.6 L -89.8,32.4 L -89.9,27.4 L -90.1,22.6 L -90.4,18.0 L -90.9,13.5 L -91.7,9.0 L -92.6,4.6 L -93.8,0.0 L -95.2,-4.7 L -96.6,-9.5 L -98.1,-14.6 L -99.5,-19.8 L -100.7,-25.3 L -101.6,-31.0 L -102.1,-36.8 L -102.1,-42.8 L -101.5,-48.7 L -100.2,-54.6 L -98.3,-60.4 L -95.6,-65.8 L -92.1,-71.0 L -88.0,-75.6 L -83.3,-79.8 L -77.9,-83.3 L -72.1,-86.3 L -66.0,-88.6 L -59.5,-90.2 L -53.0,-91.2 L -46.4,-91.6 L -39.8,-91.5 L -33.3,-91.0 L -27.1,-90.1 L -21.0,-89.0 L -15.2,-87.8 L -9.7,-86.5 L -4.4,-85.2 L 0.8,-84.1 L 5.8,-83.1 L 10.8,-82.4 L 15.8,-81.8 L 20.8,-81.4 L 26.0,-81.2 L 31.4,-81.1 L 37.0,-81.1 L 42.8,-80.9 L 48.8,-80.7 L 55.0,-80.2 L 61.3,-79.4 L 67.7,-78.2 L 74.1,-76.6 L 80.2,-74.4 L 86.2,-71.6 L 91.7,-68.3 L 96.8,-64.4 L 101.3,-60.0" fill="none" stroke="url(#swirlBlue)" stroke-width="1.1" opacity="0.48"/><path d="M 65.5,74.2 L 59.9,76.0 L 54.5,77.9 L 49.3,79.8 L 44.3,81.8 L 39.3,84.1 L 34.4,86.5 L 29.5,89.1 L 24.5,91.9 L 19.3,94.9 L 13.8,97.8 L 8.0,100.7 L 2.0,103.5 L -4.4,106.0 L -11.0,108.1 L -17.9,109.8 L -25.0,110.9 L -32.2,111.3 L -39.5,111.1 L -46.6,110.1 L -53.5,108.3 L -60.1,105.7 L -66.3,102.4 L -71.9,98.5 L -77.0,93.9 L -81.5,88.8 L -85.3,83.3 L -88.5,77.5 L -91.1,71.4 L -93.1,65.3 L -94.5,59.2 L -95.6,53.2 L -96.3,47.3 L -96.9,41.5 L -97.3,36.0 L -97.7,30.7 L -98.2,25.5 L -98.8,20.5 L -99.6,15.6 L -100.7,10.7 L -102.0,5.8 L -103.4,0.8 L -105.1,-4.3 L -106.7,-9.6 L -108.4,-15.2 L -109.9,-21.0 L -111.2,-27.0 L -112.1,-33.2 L -112.5,-39.5 L -112.4,-46.0 L -111.6,-52.4 L -110.0,-58.8 L -107.7,-64.9 L -104.7,-70.8 L -100.8,-76.3 L -96.2,-81.2 L -91.0,-85.6 L -85.2,-89.4 L -78.8,-92.6 L -72.1,-95.0 L -65.2,-96.8 L -58.1,-97.9 L -51.0,-98.4 L -43.9,-98.4 L -37.0,-98.0 L -30.2,-97.2 L -23.7,-96.2 L -17.5,-95.1 L -11.5,-94.0 L -5.7,-92.9 L -0.1,-91.9 L 5.5,-91.1 L 10.9,-90.5 L 16.4,-90.1 L 22.0,-89.9 L 27.8,-89.8 L 33.7,-89.8 L 39.9,-89.8 L 46.3,-89.7 L 52.9,-89.4 L 59.7,-88.8 L 66.6,-87.9 L 73.5,-86.5 L 80.3,-84.6 L 87.0,-82.1 L 93.3,-79.0 L 99.2,-75.2 L 104.6,-70.9 L 109.4,-66.1 L 113.4,-60.7 L 116.6,-54.9" fill="none" stroke="url(#swirlBlue)" stroke-width="1.6" opacity="0.46"/><path d="M 59.9,84.0 L 54.4,86.3 L 49.1,88.8 L 43.8,91.4 L 38.6,94.2 L 33.3,97.3 L 27.8,100.4 L 22.1,103.7 L 16.2,106.9 L 9.9,110.1 L 3.3,113.0 L -3.6,115.7 L -10.9,117.9 L -18.3,119.6 L -26.0,120.7 L -33.8,121.0 L -41.5,120.6 L -49.1,119.3 L -56.5,117.3 L -63.6,114.4 L -70.2,110.8 L -76.2,106.4 L -81.7,101.4 L -86.5,95.9 L -90.6,90.0 L -94.1,83.8 L -96.9,77.4 L -99.1,70.9 L -100.8,64.4 L -102.2,57.9 L -103.2,51.7 L -104.0,45.6 L -104.7,39.7 L -105.4,34.1 L -106.2,28.5 L -107.2,23.2 L -108.4,17.9 L -109.8,12.6 L -111.4,7.3 L -113.2,1.8 L -115.0,-3.8 L -117.0,-9.6 L -118.8,-15.7 L -120.4,-22.0 L -121.8,-28.5 L -122.7,-35.2 L -123.1,-42.1 L -122.8,-49.0 L -121.7,-56.0 L -119.9,-62.8 L -117.3,-69.3 L -113.8,-75.6 L -109.6,-81.4 L -104.5,-86.7 L -98.8,-91.3 L -92.4,-95.3 L -85.6,-98.7 L -78.4,-101.3 L -70.9,-103.2 L -63.3,-104.4 L -55.7,-105.0 L -48.1,-105.2 L -40.7,-104.9 L -33.5,-104.2 L -26.6,-103.4 L -19.9,-102.4 L -13.4,-101.4 L -7.2,-100.5 L -1.1,-99.7 L 5.0,-99.1 L 10.9,-98.7 L 17.0,-98.5 L 23.1,-98.4 L 29.4,-98.5 L 36.0,-98.6 L 42.7,-98.6 L 49.7,-98.5 L 56.9,-98.2 L 64.3,-97.6 L 71.7,-96.5 L 79.1,-94.9 L 86.5,-92.7 L 93.6,-89.9 L 100.3,-86.4 L 106.6,-82.3 L 112.3,-77.5 L 117.3,-72.2 L 121.5,-66.4 L 124.8,-60.1 L 127.3,-53.5 L 128.9,-46.7" fill="none" stroke="url(#swirlBlue)" stroke-width="1.1" opacity="0.44"/><path d="M 54.1,95.7 L 48.5,98.8 L 42.9,102.0 L 37.2,105.4 L 31.3,109.0 L 25.2,112.5 L 18.7,116.1 L 11.9,119.5 L 4.8,122.7 L -2.7,125.5 L -10.5,127.8 L -18.5,129.5 L -26.8,130.5 L -35.1,130.7 L -43.4,130.1 L -51.5,128.6 L -59.4,126.3 L -66.9,123.1 L -73.9,119.1 L -80.3,114.3 L -86.1,109.0 L -91.2,103.1 L -95.7,96.7 L -99.4,90.1 L -102.5,83.3 L -105.0,76.4 L -107.0,69.6 L -108.6,62.8 L -109.9,56.2 L -111.0,49.8 L -112.1,43.6 L -113.1,37.6 L -114.3,31.7 L -115.6,26.0 L -117.2,20.3 L -118.9,14.6 L -120.9,8.9 L -123.0,3.0 L -125.1,-3.1 L -127.3,-9.4 L -129.3,-16.0 L -131.1,-22.8 L -132.5,-29.9 L -133.4,-37.1 L -133.7,-44.5 L -133.2,-52.0 L -132.0,-59.4 L -129.9,-66.6 L -126.9,-73.6 L -123.1,-80.2 L -118.4,-86.3 L -112.8,-91.9 L -106.6,-96.8 L -99.8,-101.1 L -92.4,-104.6 L -84.7,-107.3 L -76.7,-109.4 L -68.6,-110.8 L -60.5,-111.5 L -52.5,-111.8 L -44.6,-111.6 L -36.9,-111.2 L -29.5,-110.5 L -22.4,-109.7 L -15.5,-108.9 L -8.8,-108.2 L -2.2,-107.6 L 4.3,-107.2 L 10.8,-107.0 L 17.3,-107.0 L 24.0,-107.1 L 30.9,-107.3 L 38.0,-107.5 L 45.4,-107.6 L 53.0,-107.6 L 60.8,-107.2 L 68.7,-106.5 L 76.7,-105.2 L 84.7,-103.4 L 92.5,-100.9 L 100.0,-97.8 L 107.2,-94.0 L 113.8,-89.4 L 119.7,-84.2 L 125.0,-78.4 L 129.4,-72.1 L 132.9,-65.3 L 135.5,-58.2 L 137.1,-50.9 L 137.9,-43.5 L 137.9,-36.0" fill="none" stroke="url(#swirlBlue)" stroke-width="1.1" opacity="0.42"/><path d="M 47.4,109.8 L 41.3,113.6 L 35.0,117.5 L 28.4,121.5 L 21.5,125.3 L 14.2,129.0 L 6.5,132.4 L -1.6,135.3 L -9.9,137.7 L -18.6,139.4 L -27.4,140.3 L -36.2,140.4 L -45.1,139.6 L -53.7,137.9 L -62.0,135.2 L -70.0,131.7 L -77.4,127.4 L -84.2,122.3 L -90.4,116.5 L -95.8,110.2 L -100.5,103.5 L -104.5,96.5 L -107.9,89.3 L -110.7,82.1 L -113.0,74.9 L -114.9,67.8 L -116.5,60.9 L -118.0,54.1 L -119.4,47.6 L -120.8,41.2 L -122.4,35.0 L -124.1,28.9 L -126.0,22.9 L -128.2,16.8 L -130.5,10.6 L -132.9,4.3 L -135.4,-2.3 L -137.8,-9.1 L -140.0,-16.2 L -141.9,-23.5 L -143.3,-31.1 L -144.2,-38.9 L -144.4,-46.8 L -143.8,-54.7 L -142.3,-62.6 L -140.0,-70.3 L -136.6,-77.7 L -132.4,-84.6 L -127.2,-91.1 L -121.2,-97.0 L -114.5,-102.2 L -107.1,-106.6 L -99.3,-110.3 L -91.0,-113.3 L -82.6,-115.5 L -74.0,-117.0 L -65.4,-117.9 L -56.9,-118.3 L -48.6,-118.3 L -40.5,-118.0 L -32.7,-117.5 L -25.1,-116.9 L -17.7,-116.3 L -10.5,-115.8 L -3.5,-115.5 L 3.5,-115.3 L 10.5,-115.4 L 17.6,-115.5 L 24.8,-115.9 L 32.3,-116.2 L 40.0,-116.6 L 47.9,-116.8 L 56.1,-116.7 L 64.5,-116.3 L 73.0,-115.5 L 81.6,-114.1 L 90.0,-112.1 L 98.3,-109.3 L 106.3,-105.9 L 113.9,-101.6 L 120.8,-96.7 L 127.1,-91.0 L 132.5,-84.8 L 137.1,-77.9 L 140.7,-70.7 L 143.4,-63.1 L 145.1,-55.2 L 146.0,-47.3 L 146.0,-39.4 L 145.2,-31.5 L 143.8,-23.9" fill="none" stroke="url(#swirlBlue)" stroke-width="1.6" opacity="0.40"/><path d="M 38.9,126.2 L 31.9,130.5 L 24.4,134.6 L 16.6,138.6 L 8.4,142.1 L -0.2,145.2 L -9.2,147.6 L -18.4,149.3 L -27.8,150.2 L -37.2,150.1 L -46.5,149.1 L -55.7,147.1 L -64.5,144.2 L -72.9,140.4 L -80.7,135.6 L -87.9,130.2 L -94.4,124.0 L -100.1,117.4 L -105.2,110.3 L -109.5,102.9 L -113.2,95.4 L -116.3,87.8 L -118.9,80.2 L -121.1,72.8 L -123.1,65.6 L -124.9,58.5 L -126.6,51.7 L -128.5,45.0 L -130.4,38.5 L -132.6,32.1 L -134.9,25.6 L -137.4,19.1 L -140.1,12.5 L -142.9,5.7 L -145.7,-1.3 L -148.3,-8.6 L -150.7,-16.2 L -152.8,-24.1 L -154.3,-32.2 L -155.1,-40.5 L -155.2,-48.9 L -154.5,-57.3 L -152.7,-65.6 L -150.1,-73.8 L -146.4,-81.6 L -141.7,-88.9 L -136.1,-95.7 L -129.6,-101.9 L -122.4,-107.3 L -114.5,-112.0 L -106.2,-115.9 L -97.5,-119.0 L -88.5,-121.4 L -79.4,-123.0 L -70.4,-124.1 L -61.4,-124.7 L -52.7,-124.9 L -44.2,-124.7 L -35.9,-124.4 L -27.9,-124.1 L -20.1,-123.8 L -12.5,-123.5 L -5.0,-123.4 L 2.5,-123.5 L 10.0,-123.8 L 17.6,-124.2 L 25.5,-124.8 L 33.5,-125.3 L 41.8,-125.8 L 50.3,-126.0 L 59.1,-126.0 L 68.1,-125.6 L 77.2,-124.7 L 86.3,-123.1 L 95.3,-120.8 L 104.1,-117.8 L 112.5,-114.0 L 120.4,-109.4 L 127.7,-104.0 L 134.2,-97.9 L 139.9,-91.2 L 144.6,-83.9 L 148.4,-76.1 L 151.2,-68.0 L 153.0,-59.7 L 153.9,-51.3 L 153.9,-42.9 L 153.2,-34.6 L 151.8,-26.4 L 149.9,-18.6 L 147.7,-11.0" fill="none" stroke="url(#swirlBlue)" stroke-width="1.1" opacity="0.38"/><path d="M 27.6,144.0 L 19.2,148.2 L 10.5,151.9 L 1.3,155.1 L -8.2,157.6 L -18.0,159.2 L -27.9,160.0 L -37.9,159.8 L -47.8,158.6 L -57.4,156.4 L -66.7,153.2 L -75.6,149.0 L -83.8,143.9 L -91.3,138.1 L -98.2,131.5 L -104.3,124.5 L -109.6,117.0 L -114.3,109.3 L -118.3,101.4 L -121.7,93.5 L -124.6,85.7 L -127.2,78.0 L -129.5,70.4 L -131.7,63.1 L -133.9,55.9 L -136.1,49.0 L -138.5,42.1 L -141.1,35.3 L -143.9,28.5 L -146.8,21.7 L -149.9,14.6 L -153.0,7.4 L -156.1,-0.1 L -159.0,-7.9 L -161.6,-16.0 L -163.7,-24.4 L -165.3,-33.1 L -166.1,-41.9 L -166.1,-50.8 L -165.2,-59.7 L -163.2,-68.5 L -160.2,-77.1 L -156.1,-85.3 L -151.1,-93.0 L -145.0,-100.1 L -138.1,-106.6 L -130.4,-112.2 L -122.0,-117.1 L -113.1,-121.2 L -103.9,-124.5 L -94.5,-127.1 L -84.9,-128.9 L -75.5,-130.2 L -66.1,-130.9 L -56.9,-131.3 L -48.0,-131.4 L -39.3,-131.4 L -30.9,-131.3 L -22.6,-131.2 L -14.6,-131.3 L -6.6,-131.5 L 1.4,-131.8 L 9.4,-132.4 L 17.6,-133.1 L 25.9,-133.8 L 34.5,-134.5 L 43.4,-135.1 L 52.6,-135.5 L 62.0,-135.5 L 71.5,-135.0 L 81.2,-133.9 L 90.8,-132.2 L 100.4,-129.7 L 109.6,-126.4 L 118.5,-122.2 L 126.7,-117.2 L 134.3,-111.4 L 141.1,-104.9 L 147.0,-97.6 L 151.9,-89.8 L 155.8,-81.6 L 158.7,-73.0 L 160.6,-64.2 L 161.6,-55.3 L 161.6,-46.4 L 161.0,-37.7 L 159.7,-29.2 L 157.9,-20.8 L 155.8,-12.8 L 153.4,-5.1 L 151.0,2.4" fill="none" stroke="url(#swirlBlue)" stroke-width="1.1" opacity="0.35"/><path d="M 12.7,161.7 L 3.0,165.0 L -7.1,167.5 L -17.4,169.2 L -27.9,169.9 L -38.5,169.5 L -48.9,168.1 L -59.0,165.6 L -68.8,162.1 L -78.0,157.5 L -86.7,152.1 L -94.6,145.9 L -101.8,139.0 L -108.2,131.6 L -113.9,123.8 L -118.9,115.8 L -123.2,107.6 L -126.9,99.4 L -130.2,91.2 L -133.1,83.2 L -135.9,75.4 L -138.5,67.8 L -141.1,60.3 L -143.8,53.1 L -146.6,45.9 L -149.7,38.8 L -152.9,31.6 L -156.3,24.3 L -159.7,16.9 L -163.2,9.2 L -166.6,1.2 L -169.8,-7.1 L -172.6,-15.7 L -174.8,-24.6 L -176.4,-33.8 L -177.2,-43.2 L -177.1,-52.6 L -175.9,-62.0 L -173.7,-71.3 L -170.4,-80.2 L -165.9,-88.8 L -160.4,-96.9 L -153.9,-104.3 L -146.5,-111.1 L -138.3,-117.0 L -129.5,-122.1 L -120.1,-126.4 L -110.4,-129.9 L -100.5,-132.6 L -90.5,-134.7 L -80.6,-136.1 L -70.8,-137.1 L -61.2,-137.7 L -51.9,-138.0 L -42.8,-138.3 L -34.0,-138.4 L -25.3,-138.7 L -16.8,-139.0 L -8.4,-139.5 L 0.1,-140.2 L 8.6,-141.1 L 17.3,-142.0 L 26.2,-143.0 L 35.4,-143.9 L 44.9,-144.6 L 54.7,-145.0 L 64.7,-145.1 L 74.8,-144.5 L 85.1,-143.4 L 95.3,-141.4 L 105.3,-138.7 L 115.0,-135.1 L 124.3,-130.5 L 132.9,-125.2 L 140.8,-118.9 L 147.9,-111.9 L 154.0,-104.2 L 159.1,-95.9 L 163.1,-87.1 L 166.1,-78.1 L 168.1,-68.8 L 169.1,-59.4 L 169.2,-50.1 L 168.7,-40.9 L 167.5,-32.0 L 165.8,-23.2 L 163.8,-14.8 L 161.6,-6.6 L 159.3,1.3 L 157.1,9.0 L 155.0,16.5" fill="none" stroke="url(#swirlBlue)" stroke-width="1.6" opacity="0.33"/><path d="M -5.8,177.5 L -16.7,179.1 L -27.7,179.7 L -38.8,179.1 L -49.7,177.5 L -60.4,174.7 L -70.6,170.9 L -80.3,166.1 L -89.3,160.3 L -97.6,153.7 L -105.2,146.5 L -112.0,138.7 L -118.0,130.6 L -123.3,122.2 L -127.9,113.7 L -132.0,105.2 L -135.7,96.8 L -139.0,88.5 L -142.2,80.5 L -145.2,72.6 L -148.3,64.9 L -151.4,57.3 L -154.8,49.8 L -158.3,42.4 L -162.0,34.9 L -165.8,27.2 L -169.7,19.3 L -173.5,11.2 L -177.2,2.7 L -180.7,-6.1 L -183.6,-15.3 L -186.0,-24.7 L -187.6,-34.4 L -188.3,-44.3 L -188.1,-54.2 L -186.7,-64.1 L -184.2,-73.8 L -180.6,-83.2 L -175.7,-92.2 L -169.8,-100.6 L -162.9,-108.3 L -155.0,-115.4 L -146.3,-121.5 L -137.0,-126.9 L -127.1,-131.4 L -117.0,-135.1 L -106.6,-138.0 L -96.2,-140.3 L -85.9,-142.0 L -75.7,-143.1 L -65.7,-144.0 L -56.0,-144.6 L -46.5,-145.1 L -37.2,-145.6 L -28.2,-146.1 L -19.2,-146.8 L -10.3,-147.7 L -1.4,-148.7 L 7.7,-149.8 L 16.9,-151.0 L 26.4,-152.2 L 36.2,-153.3 L 46.3,-154.2 L 56.6,-154.7 L 67.2,-154.8 L 78.0,-154.2 L 88.8,-152.9 L 99.5,-150.8 L 110.0,-147.8 L 120.2,-143.8 L 129.9,-138.9 L 138.9,-133.1 L 147.1,-126.5 L 154.4,-119.0 L 160.7,-110.8 L 166.0,-102.0 L 170.2,-92.8 L 173.3,-83.2 L 175.3,-73.5 L 176.4,-63.7 L 176.7,-53.9 L 176.2,-44.3 L 175.1,-34.9 L 173.6,-25.8 L 171.7,-16.9 L 169.7,-8.3 L 167.7,-0.0 L 165.7,8.1 L 163.8,16.1 L 162.1,24.0 L 160.6,32.0" fill="none" stroke="url(#swirlBlue)" stroke-width="1.1" opacity="0.31"/><path d="M -27.3,189.4 L -39.0,188.7 L -50.4,186.9 L -61.5,183.8 L -72.2,179.7 L -82.3,174.5 L -91.8,168.4 L -100.5,161.5 L -108.4,153.9 L -115.5,145.8 L -121.9,137.4 L -127.5,128.7 L -132.5,119.9 L -137.0,111.2 L -141.0,102.5 L -144.8,94.0 L -148.4,85.7 L -151.9,77.5 L -155.4,69.6 L -159.1,61.7 L -162.9,53.9 L -166.9,46.2 L -171.1,38.3 L -175.4,30.2 L -179.7,21.9 L -183.9,13.3 L -188.0,4.4 L -191.6,-4.9 L -194.8,-14.6 L -197.2,-24.6 L -198.8,-34.8 L -199.5,-45.2 L -199.1,-55.6 L -197.5,-66.0 L -194.8,-76.2 L -190.8,-86.0 L -185.6,-95.3 L -179.2,-104.1 L -171.8,-112.2 L -163.4,-119.5 L -154.3,-125.9 L -144.5,-131.5 L -134.2,-136.2 L -123.6,-140.1 L -112.8,-143.3 L -102.0,-145.7 L -91.2,-147.6 L -80.6,-149.1 L -70.3,-150.2 L -60.2,-151.1 L -50.3,-151.9 L -40.7,-152.8 L -31.2,-153.7 L -21.8,-154.7 L -12.5,-155.9 L -3.0,-157.2 L 6.5,-158.7 L 16.3,-160.2 L 26.4,-161.7 L 36.8,-162.9 L 47.5,-164.0 L 58.4,-164.5 L 69.6,-164.6 L 81.0,-163.9 L 92.3,-162.5 L 103.6,-160.2 L 114.6,-156.9 L 125.2,-152.6 L 135.3,-147.4 L 144.7,-141.2 L 153.2,-134.1 L 160.7,-126.1 L 167.3,-117.4 L 172.7,-108.2 L 177.0,-98.5 L 180.2,-88.4 L 182.4,-78.2 L 183.6,-68.0 L 184.0,-57.8 L 183.6,-47.8 L 182.7,-37.9 L 181.3,-28.4 L 179.6,-19.2 L 177.8,-10.2 L 176.0,-1.4 L 174.3,7.1 L 172.7,15.6 L 171.2,24.0 L 169.9,32.4 L 168.8,40.9 L 167.7,49.6" fill="none" stroke="url(#swirlBlue)" stroke-width="1.1" opacity="0.29"/><path d="M -50.9,196.2 L -62.5,192.9 L -73.6,188.4 L -84.2,182.9 L -94.0,176.5 L -103.1,169.2 L -111.4,161.3 L -118.9,152.9 L -125.6,144.2 L -131.6,135.2 L -137.0,126.2 L -141.8,117.2 L -146.3,108.3 L -150.5,99.5 L -154.5,91.0 L -158.5,82.6 L -162.6,74.4 L -166.8,66.3 L -171.1,58.2 L -175.7,50.1 L -180.3,41.9 L -185.1,33.4 L -189.8,24.7 L -194.4,15.6 L -198.8,6.2 L -202.7,-3.6 L -206.0,-13.8 L -208.5,-24.3 L -210.2,-35.0 L -210.7,-45.9 L -210.2,-56.9 L -208.4,-67.7 L -205.3,-78.3 L -201.0,-88.6 L -195.3,-98.3 L -188.6,-107.4 L -180.7,-115.8 L -171.9,-123.4 L -162.3,-130.1 L -152.0,-135.9 L -141.3,-140.9 L -130.2,-145.0 L -119.0,-148.4 L -107.8,-151.1 L -96.7,-153.2 L -85.7,-154.9 L -75.0,-156.4 L -64.5,-157.6 L -54.3,-158.7 L -44.3,-159.9 L -34.4,-161.2 L -24.6,-162.6 L -14.8,-164.2 L -4.9,-165.9 L 5.2,-167.7 L 15.6,-169.5 L 26.2,-171.2 L 37.2,-172.7 L 48.5,-173.8 L 60.1,-174.5 L 71.8,-174.5 L 83.8,-173.8 L 95.7,-172.2 L 107.5,-169.7 L 119.0,-166.1 L 130.1,-161.5 L 140.5,-155.9 L 150.2,-149.3 L 159.1,-141.7 L 166.9,-133.3 L 173.6,-124.1 L 179.2,-114.4 L 183.7,-104.2 L 187.0,-93.7 L 189.3,-83.1 L 190.6,-72.4 L 191.1,-61.8 L 190.9,-51.3 L 190.1,-41.1 L 189.0,-31.2 L 187.5,-21.5 L 186.0,-12.1 L 184.4,-3.0 L 182.9,6.0 L 181.6,14.9 L 180.4,23.8 L 179.4,32.7 L 178.6,41.8 L 177.7,51.0 L 176.8,60.5 L 175.7,70.2" fill="none" stroke="url(#swirlBlue)" stroke-width="1.6" opacity="0.27"/><path d="M -74.8,197.1 L -85.8,191.3 L -96.0,184.5 L -105.5,176.9 L -114.2,168.7 L -122.0,160.0 L -129.1,151.0 L -135.5,141.8 L -141.3,132.5 L -146.6,123.3 L -151.5,114.1 L -156.1,105.2 L -160.7,96.4 L -165.2,87.8 L -169.8,79.4 L -174.5,71.0 L -179.4,62.7 L -184.4,54.2 L -189.6,45.7 L -194.8,36.8 L -200.0,27.7 L -205.0,18.1 L -209.7,8.2 L -213.8,-2.1 L -217.3,-12.8 L -219.9,-23.8 L -221.5,-35.1 L -222.0,-46.5 L -221.3,-57.9 L -219.2,-69.3 L -215.8,-80.3 L -211.1,-91.0 L -205.1,-101.1 L -197.9,-110.5 L -189.6,-119.2 L -180.3,-127.1 L -170.2,-134.0 L -159.5,-140.1 L -148.4,-145.3 L -136.9,-149.7 L -125.3,-153.3 L -113.7,-156.3 L -102.2,-158.7 L -90.9,-160.7 L -79.8,-162.5 L -69.0,-164.0 L -58.4,-165.6 L -48.0,-167.1 L -37.7,-168.8 L -27.5,-170.6 L -17.2,-172.6 L -6.8,-174.6 L 3.8,-176.8 L 14.7,-178.9 L 25.9,-180.8 L 37.4,-182.5 L 49.3,-183.8 L 61.5,-184.5 L 73.9,-184.5 L 86.4,-183.7 L 98.9,-182.0 L 111.2,-179.2 L 123.2,-175.4 L 134.7,-170.5 L 145.6,-164.5 L 155.6,-157.4 L 164.7,-149.4 L 172.8,-140.5 L 179.7,-130.9 L 185.5,-120.7 L 190.1,-110.0 L 193.6,-99.0 L 196.0,-88.0 L 197.5,-76.8 L 198.1,-65.8 L 198.1,-55.0 L 197.5,-44.4 L 196.6,-34.1 L 195.4,-24.0 L 194.1,-14.2 L 192.8,-4.7 L 191.7,4.8 L 190.7,14.1 L 189.8,23.5 L 189.1,32.9 L 188.5,42.5 L 187.8,52.3 L 187.1,62.3 L 186.1,72.6 L 184.7,83.0 L 182.8,93.7" fill="none" stroke="url(#swirlBlue)" stroke-width="1.1" opacity="0.25"/><path d="M -97.9,192.5 L -107.7,184.6 L -116.8,176.1 L -125.0,167.1 L -132.5,157.8 L -139.3,148.4 L -145.4,138.9 L -151.2,129.4 L -156.5,120.1 L -161.7,111.0 L -166.7,102.0 L -171.8,93.2 L -176.9,84.6 L -182.2,75.9 L -187.7,67.3 L -193.3,58.6 L -199.0,49.6 L -204.7,40.4 L -210.3,30.8 L -215.7,20.8 L -220.6,10.4 L -225.0,-0.4 L -228.6,-11.6 L -231.3,-23.2 L -232.9,-35.0 L -233.3,-46.9 L -232.3,-58.8 L -230.1,-70.6 L -226.4,-82.1 L -221.3,-93.2 L -214.9,-103.7 L -207.2,-113.4 L -198.5,-122.4 L -188.7,-130.6 L -178.2,-137.8 L -167.1,-144.1 L -155.5,-149.6 L -143.6,-154.2 L -131.6,-158.1 L -119.7,-161.3 L -107.8,-164.1 L -96.2,-166.4 L -84.8,-168.5 L -73.6,-170.4 L -62.7,-172.4 L -51.9,-174.3 L -41.3,-176.4 L -30.6,-178.7 L -19.9,-181.0 L -9.0,-183.5 L 2.1,-186.0 L 13.6,-188.4 L 25.4,-190.6 L 37.5,-192.5 L 50.0,-193.9 L 62.8,-194.7 L 75.8,-194.7 L 88.9,-193.8 L 101.9,-191.9 L 114.8,-188.9 L 127.2,-184.7 L 139.2,-179.4 L 150.4,-173.0 L 160.8,-165.5 L 170.1,-157.1 L 178.4,-147.7 L 185.6,-137.6 L 191.5,-127.0 L 196.3,-115.8 L 200.0,-104.4 L 202.6,-92.9 L 204.2,-81.4 L 205.0,-70.0 L 205.2,-58.7 L 204.8,-47.8 L 204.1,-37.1 L 203.2,-26.6 L 202.2,-16.5 L 201.3,-6.5 L 200.5,3.4 L 199.8,13.2 L 199.3,23.0 L 198.9,33.0 L 198.5,43.1 L 198.1,53.4 L 197.6,64.0 L 196.7,74.8 L 195.3,85.9 L 193.4,97.1 L 190.7,108.4 L 187.0,119.6" fill="none" stroke="url(#swirlBlue)" stroke-width="1.1" opacity="0.23"/><path d="M -119.2,183.4 L -127.8,174.2 L -135.7,164.6 L -142.9,155.0 L -149.5,145.3 L -155.7,135.7 L -161.5,126.2 L -167.2,116.9 L -172.7,107.7 L -178.4,98.8 L -184.1,89.9 L -190.0,81.0 L -196.0,72.1 L -202.1,63.1 L -208.4,53.8 L -214.6,44.2 L -220.6,34.2 L -226.4,23.7 L -231.6,12.8 L -236.2,1.5 L -240.0,-10.3 L -242.7,-22.3 L -244.3,-34.7 L -244.5,-47.1 L -243.4,-59.5 L -240.9,-71.8 L -236.8,-83.7 L -231.4,-95.2 L -224.6,-106.0 L -216.5,-116.2 L -207.3,-125.5 L -197.1,-133.9 L -186.2,-141.4 L -174.6,-148.0 L -162.6,-153.7 L -150.4,-158.6 L -138.0,-162.7 L -125.7,-166.3 L -113.6,-169.3 L -101.6,-172.0 L -89.9,-174.5 L -78.4,-176.8 L -67.1,-179.2 L -56.0,-181.6 L -45.0,-184.1 L -33.9,-186.8 L -22.7,-189.6 L -11.4,-192.4 L 0.3,-195.3 L 12.3,-198.0 L 24.7,-200.5 L 37.4,-202.6 L 50.5,-204.1 L 63.9,-204.9 L 77.5,-204.9 L 91.2,-203.9 L 104.7,-201.8 L 118.1,-198.5 L 131.0,-194.1 L 143.4,-188.5 L 155.0,-181.6 L 165.7,-173.7 L 175.4,-164.8 L 183.9,-155.0 L 191.2,-144.4 L 197.4,-133.3 L 202.3,-121.7 L 206.1,-109.9 L 208.9,-98.0 L 210.7,-86.0 L 211.7,-74.2 L 212.1,-62.6 L 212.0,-51.3 L 211.6,-40.2 L 211.0,-29.4 L 210.4,-18.8 L 209.8,-8.4 L 209.4,1.8 L 209.1,12.1 L 208.9,22.4 L 208.8,32.9 L 208.7,43.5 L 208.6,54.4 L 208.2,65.6 L 207.4,77.0 L 206.1,88.6 L 204.1,100.3 L 201.3,112.2 L 197.5,123.9 L 192.6,135.4 L 186.6,146.6" fill="none" stroke="url(#swirlBlue)" stroke-width="1.6" opacity="0.21"/><path d="M -138.7,171.5 L -146.3,161.6 L -153.4,151.8 L -160.0,142.0 L -166.4,132.4 L -172.6,122.9 L -178.7,113.6 L -184.9,104.5 L -191.3,95.4 L -197.7,86.3 L -204.4,77.1 L -211.1,67.8 L -217.9,58.1 L -224.6,48.1 L -231.0,37.7 L -237.2,26.8 L -242.7,15.4 L -247.5,3.5 L -251.4,-8.7 L -254.1,-21.3 L -255.6,-34.2 L -255.8,-47.1 L -254.4,-60.0 L -251.6,-72.8 L -247.3,-85.1 L -241.4,-97.0 L -234.2,-108.2 L -225.7,-118.7 L -216.1,-128.3 L -205.5,-137.0 L -194.1,-144.8 L -182.2,-151.7 L -169.8,-157.6 L -157.2,-162.8 L -144.5,-167.3 L -131.9,-171.1 L -119.4,-174.5 L -107.2,-177.6 L -95.2,-180.4 L -83.4,-183.2 L -71.8,-186.0 L -60.3,-188.9 L -48.9,-191.9 L -37.4,-195.0 L -25.8,-198.2 L -13.9,-201.5 L -1.7,-204.7 L 10.8,-207.7 L 23.8,-210.5 L 37.1,-212.7 L 50.9,-214.4 L 64.8,-215.2 L 79.0,-215.2 L 93.3,-214.0 L 107.4,-211.8 L 121.2,-208.3 L 134.6,-203.5 L 147.4,-197.5 L 159.4,-190.3 L 170.4,-181.9 L 180.3,-172.5 L 189.1,-162.2 L 196.7,-151.2 L 203.0,-139.6 L 208.2,-127.6 L 212.1,-115.4 L 215.1,-103.1 L 217.1,-90.7 L 218.4,-78.6 L 219.0,-66.6 L 219.2,-54.9 L 219.1,-43.5 L 218.9,-32.3 L 218.6,-21.3 L 218.4,-10.5 L 218.3,0.2 L 218.4,10.9 L 218.6,21.7 L 218.9,32.7 L 219.1,43.8 L 219.2,55.3 L 219.0,67.0 L 218.4,79.0 L 217.1,91.2 L 215.0,103.5 L 212.1,115.8 L 208.0,128.1 L 202.9,140.0 L 196.5,151.6 L 188.9,162.6 L 180.0,172.9" fill="none" stroke="url(#swirlBlue)" stroke-width="1.1" opacity="0.18"/><path d="M -157.2,158.3 L -164.3,148.4 L -171.2,138.7 L -178.0,129.1 L -184.7,119.6 L -191.5,110.3 L -198.5,101.0 L -205.5,91.7 L -212.8,82.3 L -220.1,72.6 L -227.4,62.6 L -234.6,52.2 L -241.5,41.4 L -248.0,30.0 L -253.8,18.1 L -258.8,5.8 L -262.8,-7.0 L -265.6,-20.2 L -267.0,-33.5 L -267.0,-47.0 L -265.4,-60.4 L -262.3,-73.5 L -257.6,-86.3 L -251.4,-98.6 L -243.8,-110.2 L -234.9,-121.0 L -224.8,-130.9 L -213.8,-139.9 L -202.1,-148.0 L -189.7,-155.1 L -177.0,-161.4 L -164.0,-166.9 L -151.1,-171.6 L -138.1,-175.9 L -125.4,-179.6 L -112.9,-183.1 L -100.5,-186.4 L -88.5,-189.6 L -76.6,-192.8 L -64.7,-196.2 L -52.9,-199.7 L -41.0,-203.3 L -29.0,-206.9 L -16.6,-210.6 L -3.9,-214.2 L 9.2,-217.6 L 22.7,-220.6 L 36.7,-223.0 L 51.0,-224.8 L 65.6,-225.6 L 80.4,-225.5 L 95.1,-224.3 L 109.8,-221.8 L 124.2,-218.0 L 138.0,-212.9 L 151.2,-206.5 L 163.5,-198.9 L 174.9,-190.1 L 185.1,-180.3 L 194.1,-169.5 L 201.9,-158.1 L 208.4,-146.0 L 213.8,-133.6 L 217.9,-121.0 L 221.1,-108.2 L 223.3,-95.5 L 224.9,-83.0 L 225.8,-70.7 L 226.3,-58.6 L 226.6,-46.8 L 226.7,-35.3 L 226.8,-24.0 L 227.1,-12.8 L 227.4,-1.6 L 227.9,9.5 L 228.5,20.8 L 229.1,32.3 L 229.7,44.0 L 230.0,56.0 L 230.0,68.3 L 229.4,80.8 L 228.2,93.6 L 226.1,106.5 L 223.0,119.3 L 218.7,132.1 L 213.2,144.5 L 206.5,156.5 L 198.4,167.8 L 189.1,178.4 L 178.6,188.0 L 167.0,196.5" fill="none" stroke="url(#swirlBlue)" stroke-width="1.1" opacity="0.16"/><path d="M -176.0,145.1 L -183.3,135.4 L -190.7,125.8 L -198.1,116.4 L -205.7,106.9 L -213.4,97.4 L -221.2,87.7 L -229.1,77.7 L -237.0,67.4 L -244.7,56.6 L -252.0,45.3 L -258.9,33.4 L -265.0,21.1 L -270.1,8.2 L -274.2,-5.1 L -277.0,-18.8 L -278.3,-32.7 L -278.2,-46.6 L -276.4,-60.5 L -273.0,-74.1 L -267.9,-87.3 L -261.4,-100.0 L -253.3,-111.9 L -244.0,-123.1 L -233.5,-133.3 L -222.1,-142.7 L -210.0,-151.0 L -197.3,-158.4 L -184.2,-165.0 L -170.9,-170.8 L -157.7,-175.9 L -144.5,-180.5 L -131.5,-184.6 L -118.7,-188.5 L -106.1,-192.3 L -93.7,-196.0 L -81.5,-199.7 L -69.4,-203.6 L -57.2,-207.5 L -44.9,-211.6 L -32.4,-215.8 L -19.5,-219.9 L -6.3,-223.8 L 7.4,-227.5 L 21.5,-230.7 L 36.0,-233.4 L 50.9,-235.2 L 66.1,-236.1 L 81.5,-235.9 L 96.8,-234.5 L 112.0,-231.8 L 126.9,-227.7 L 141.2,-222.3 L 154.8,-215.5 L 167.4,-207.5 L 179.1,-198.3 L 189.6,-188.0 L 198.9,-176.8 L 206.9,-164.9 L 213.6,-152.4 L 219.2,-139.6 L 223.6,-126.6 L 226.9,-113.5 L 229.5,-100.4 L 231.2,-87.5 L 232.5,-74.9 L 233.4,-62.5 L 234.0,-50.4 L 234.5,-38.5 L 235.1,-26.8 L 235.8,-15.2 L 236.6,-3.6 L 237.5,8.0 L 238.5,19.8 L 239.5,31.8 L 240.4,44.1 L 241.0,56.6 L 241.1,69.5 L 240.7,82.6 L 239.4,95.9 L 237.3,109.3 L 234.0,122.7 L 229.5,135.9 L 223.7,148.8 L 216.6,161.2 L 208.1,172.9 L 198.3,183.7 L 187.3,193.5 L 175.1,202.2 L 162.0,209.7 L 148.1,215.9" fill="none" stroke="url(#swirlBlue)" stroke-width="1.6" opacity="0.14"/><path d="M -196.6,132.2 L -204.7,122.6 L -212.9,112.9 L -221.2,103.2 L -229.7,93.3 L -238.2,83.0 L -246.6,72.3 L -254.8,61.1 L -262.6,49.4 L -269.8,37.1 L -276.1,24.2 L -281.5,10.8 L -285.6,-3.0 L -288.4,-17.2 L -289.6,-31.6 L -289.3,-46.1 L -287.3,-60.4 L -283.5,-74.5 L -278.2,-88.2 L -271.2,-101.2 L -262.8,-113.5 L -253.1,-125.0 L -242.2,-135.6 L -230.4,-145.2 L -217.9,-153.8 L -204.8,-161.6 L -191.4,-168.5 L -177.9,-174.6 L -164.4,-180.1 L -150.9,-185.0 L -137.7,-189.6 L -124.6,-193.9 L -111.8,-198.2 L -99.2,-202.4 L -86.7,-206.6 L -74.2,-211.0 L -61.7,-215.5 L -48.9,-220.1 L -36.0,-224.7 L -22.6,-229.2 L -8.9,-233.5 L 5.3,-237.5 L 20.0,-241.0 L 35.2,-243.8 L 50.7,-245.7 L 66.5,-246.6 L 82.4,-246.3 L 98.3,-244.8 L 114.1,-241.8 L 129.4,-237.5 L 144.1,-231.7 L 158.1,-224.6 L 171.1,-216.1 L 183.1,-206.4 L 193.9,-195.7 L 203.4,-184.1 L 211.6,-171.8 L 218.6,-158.9 L 224.4,-145.6 L 229.0,-132.2 L 232.6,-118.8 L 235.4,-105.4 L 237.5,-92.2 L 239.1,-79.2 L 240.4,-66.5 L 241.4,-54.0 L 242.4,-41.8 L 243.5,-29.7 L 244.6,-17.7 L 245.9,-5.7 L 247.2,6.4 L 248.7,18.6 L 250.0,31.1 L 251.2,43.9 L 252.1,57.1 L 252.4,70.5 L 252.0,84.2 L 250.8,98.1 L 248.6,112.0 L 245.1,125.9 L 240.4,139.6 L 234.2,152.9 L 226.7,165.7 L 217.8,177.7 L 207.5,188.8 L 196.0,198.9 L 183.3,207.8 L 169.6,215.4 L 155.2,221.7 L 140.1,226.7 L 124.6,230.4" fill="none" stroke="url(#swirlBlue)" stroke-width="1.1" opacity="0.12"/></svg>