<svg viewBox="-260.0 -260.0 520 520" xmlns="http://www.w3.org/2000/svg" width="100%" height="100%"><defs><linearGradient id="swirlRose" x1="0%" y1="0%" x2="100%" y2="100%"><stop offset="0%" stop-color="#B23A5B"/><stop offset="100%" stop-color="#E58FA6"/></linearGradient></defs><path d="M 30.0,0.0 L 31.5,1.5 L 32.9,3.2 L 34.1,5.1 L 35.1,7.0 L 35.7,9.0 L 36.1,11.0 L 36.1,13.0 L 35.8,15.0 L 35.2,16.9 L 34.2,18.6 L 32.9,20.2 L 31.3,21.6 L 29.5,22.7 L 27.5,23.6 L 25.3,24.3 L 23.0,24.6 L 20.7,24.7 L 18.3,24.6 L 16.0,24.3 L 13.8,23.8 L 11.7,23.1 L 9.7,22.4 L 7.9,21.6 L 6.2,20.8 L 4.7,20.1 L 3.4,19.4 L 2.1,18.8 L 0.9,18.4 L -0.2,18.1 L -1.3,18.0 L -2.4,18.0 L -3.5,18.2 L -4.8,18.6 L -6.1,19.1 L -7.6,19.7 L -9.3,20.3 L -11.1,20.9 L -13.0,21.5 L -15.1,22.0 L -17.3,22.4 L -19.6,22.7 L -21.9,22.7 L -24.3,22.5 L -26.6,22.1 L -28.8,21.4 L -30.8,20.5 L -32.6,19.3 L -34.2,18.0 L -35.5,16.4 L -36.5,14.6 L -37.2,12.8 L -37.5,10.8 L -37.4,8.8 L -37.1,6.8 L -36.3,4.8 L -35.3,2.9 L -34.1,1.2 L -32.6,-0.5 L -31.0,-2.0 L -29.3,-3.3 L -27.5,-4.5 L -25.7,-5.5 L -24.0,-6.4 L -22.3,-7.2 L -20.8,-7.9 L -19.4,-8.5 L -18.2,-9.1 L -17.2,-9.7 L -16.4,-10.4 L -15.7,-11.2 L -15.1,-12.1 L -14.7,-13.1 L -14.4,-14.2 L -14.1,-15.6 L -13.7,-17.0 L -13.4,-18.6 L -12.9,-20.3 L -12.3,-22.2 L -11.6,-24.0 L -10.7,-25.9 L -9.6,-27.7 L -8.3,-29.4 L -6.7,-31.0 L -5.0,-32.5 L -3.1,-33.7 L -1.1,-34.6 L 1.0,-35.3 L 3.2,-35.6 L 5.3,-35.6 L 7.5,-35.3" fill="none" stroke="url(#swirlRose)" stroke-width="1.6" opacity="0.65"/><path d="M 44.4,5.2 L 45.4,7.6 L 46.0,10.1 L 46.4,12.6 L 46.3,15.1 L 45.8,17.6 L 45.0,19.9 L 43.8,22.1 L 42.2,24.1 L 40.3,25.9 L 38.1,27.5 L 35.7,28.7 L 33.1,29.7 L 30.4,30.4 L 27.6,30.8 L 24.8,31.0 L 22.0,30.9 L 19.3,30.6 L 16.6,30.2 L 14.2,29.6 L 11.8,29.0 L 9.6,28.3 L 7.6,27.7 L 5.8,27.2 L 4.0,26.7 L 2.3,26.3 L 0.7,26.2 L -0.9,26.1 L -2.5,26.2 L -4.1,26.5 L -5.8,26.9 L -7.7,27.4 L -9.7,28.0 L -11.8,28.6 L -14.1,29.2 L -16.6,29.8 L -19.2,30.2 L -21.9,30.5 L -24.7,30.6 L -27.5,30.4 L -30.3,30.0 L -33.0,29.4 L -35.7,28.4 L -38.1,27.2 L -40.3,25.7 L -42.3,23.9 L -43.9,21.9 L -45.1,19.7 L -46.0,17.4 L -46.5,15.0 L -46.6,12.5 L -46.4,10.0 L -45.7,7.5 L -44.8,5.1 L -43.5,2.8 L -42.1,0.6 L -40.4,-1.4 L -38.6,-3.2 L -36.7,-4.9 L -34.8,-6.4 L -32.9,-7.7 L -31.1,-9.0 L -29.4,-10.1 L -27.9,-11.2 L -26.5,-12.2 L -25.3,-13.3 L -24.3,-14.4 L -23.4,-15.6 L -22.6,-16.8 L -22.0,-18.2 L -21.4,-19.8 L -20.8,-21.5 L -20.2,-23.3 L -19.5,-25.3 L -18.8,-27.4 L -17.9,-29.5 L -16.7,-31.7 L -15.4,-33.9 L -13.9,-36.0 L -12.2,-38.0 L -10.2,-39.8 L -8.0,-41.4 L -5.6,-42.8 L -3.1,-43.8 L -0.4,-44.6 L 2.3,-44.9 L 5.0,-45.0 L 7.7,-44.6 L 10.4,-43.9 L 12.9,-42.8 L 15.2,-41.4" fill="none" stroke="url(#swirlRose)" stroke-width="1.1" opacity="0.63"/><path d="M 56.8,13.6 L 56.6,16.6 L 56.1,19.5 L 55.1,22.3 L 53.6,25.0 L 51.8,27.5 L 49.6,29.7 L 47.1,31.6 L 44.3,33.3 L 41.3,34.7 L 38.2,35.7 L 34.9,36.5 L 31.7,36.9 L 28.4,37.1 L 25.2,37.1 L 22.1,36.9 L 19.1,36.6 L 16.3,36.1 L 13.6,35.7 L 11.1,35.2 L 8.7,34.8 L 6.5,34.5 L 4.3,34.3 L 2.2,34.2 L 0.1,34.3 L -1.9,34.5 L -4.1,34.9 L -6.3,35.3 L -8.7,35.9 L -11.2,36.5 L -13.8,37.2 L -16.6,37.8 L -19.6,38.3 L -22.7,38.7 L -25.9,38.9 L -29.2,38.8 L -32.5,38.5 L -35.8,37.9 L -39.0,37.1 L -42.1,35.8 L -44.9,34.3 L -47.6,32.5 L -49.9,30.3 L -51.8,28.0 L -53.4,25.4 L -54.5,22.6 L -55.3,19.7 L -55.6,16.7 L -55.5,13.7 L -54.9,10.7 L -54.1,7.8 L -52.9,5.0 L -51.4,2.3 L -49.7,-0.2 L -47.8,-2.5 L -45.9,-4.7 L -43.9,-6.7 L -41.9,-8.5 L -40.0,-10.2 L -38.2,-11.8 L -36.5,-13.4 L -35.0,-14.8 L -33.7,-16.3 L -32.4,-17.9 L -31.4,-19.5 L -30.4,-21.2 L -29.6,-23.0 L -28.8,-25.0 L -28.0,-27.1 L -27.2,-29.3 L -26.2,-31.7 L -25.2,-34.1 L -23.9,-36.6 L -22.5,-39.1 L -20.8,-41.6 L -18.9,-44.0 L -16.7,-46.3 L -14.3,-48.4 L -11.6,-50.2 L -8.7,-51.8 L -5.7,-53.0 L -2.5,-53.8 L 0.8,-54.2 L 4.1,-54.3 L 7.3,-53.9 L 10.5,-53.1 L 13.6,-51.9 L 16.4,-50.4 L 19.1,-48.6 L 21.5,-46.5 L 23.6,-44.1" fill="none" stroke="url(#swirlRose)" stroke-width="1.1" opacity="0.61"/><path d="M 65.3,24.2 L 63.7,27.3 L 61.7,30.2 L 59.2,32.9 L 56.4,35.3 L 53.3,37.4 L 49.9,39.1 L 46.4,40.6 L 42.7,41.7 L 39.0,42.4 L 35.3,43.0 L 31.6,43.2 L 28.0,43.3 L 24.6,43.2 L 21.2,43.0 L 18.1,42.7 L 15.1,42.5 L 12.2,42.3 L 9.5,42.1 L 6.9,42.1 L 4.3,42.2 L 1.8,42.4 L -0.8,42.8 L -3.4,43.2 L -6.2,43.8 L -9.0,44.5 L -12.0,45.2 L -15.2,45.9 L -18.5,46.5 L -22.0,47.0 L -25.6,47.4 L -29.3,47.5 L -33.1,47.4 L -37.0,47.0 L -40.8,46.2 L -44.4,45.1 L -48.0,43.7 L -51.3,41.9 L -54.3,39.7 L -57.0,37.3 L -59.3,34.5 L -61.2,31.5 L -62.7,28.3 L -63.7,24.9 L -64.2,21.5 L -64.3,18.0 L -63.9,14.5 L -63.1,11.1 L -62.0,7.7 L -60.6,4.6 L -58.9,1.5 L -57.1,-1.3 L -55.1,-4.0 L -53.1,-6.5 L -51.0,-8.8 L -49.0,-11.0 L -47.1,-13.0 L -45.4,-15.0 L -43.7,-17.0 L -42.3,-18.9 L -40.9,-20.9 L -39.7,-22.9 L -38.6,-25.1 L -37.6,-27.3 L -36.6,-29.7 L -35.6,-32.2 L -34.6,-34.9 L -33.4,-37.7 L -32.1,-40.5 L -30.6,-43.4 L -28.8,-46.3 L -26.8,-49.1 L -24.5,-51.9 L -21.9,-54.4 L -19.0,-56.8 L -15.9,-58.9 L -12.5,-60.6 L -9.0,-62.0 L -5.3,-62.9 L -1.4,-63.5 L 2.4,-63.5 L 6.2,-63.2 L 10.0,-62.4 L 13.6,-61.1 L 17.0,-59.5 L 20.2,-57.5 L 23.1,-55.2 L 25.8,-52.7 L 28.2,-49.9 L 30.2,-47.1 L 32.0,-44.1" fill="none" stroke="url(#swirlRose)" stroke-width="1.6" opacity="0.59"/><path d="M 69.1,35.6 L 66.0,38.4 L 62.5,40.9 L 58.8,43.1 L 54.9,44.9 L 50.8,46.4 L 46.7,47.5 L 42.6,48.4 L 38.4,49.0 L 34.4,49.3 L 30.5,49.5 L 26.7,49.6 L 23.1,49.6 L 19.7,49.5 L 16.3,49.5 L 13.1,49.6 L 10.0,49.8 L 7.0,50.1 L 4.0,50.5 L 0.9,51.0 L -2.2,51.6 L -5.4,52.4 L -8.8,53.2 L -12.3,54.0 L -15.9,54.8 L -19.8,55.5 L -23.8,56.0 L -27.9,56.4 L -32.2,56.5 L -36.5,56.3 L -40.8,55.8 L -45.1,54.9 L -49.3,53.6 L -53.4,51.9 L -57.1,49.9 L -60.6,47.4 L -63.7,44.6 L -66.4,41.5 L -68.7,38.1 L -70.4,34.5 L -71.7,30.7 L -72.5,26.7 L -72.8,22.8 L -72.6,18.8 L -72.0,14.9 L -71.0,11.0 L -69.6,7.3 L -68.0,3.8 L -66.2,0.5 L -64.2,-2.7 L -62.2,-5.7 L -60.2,-8.5 L -58.1,-11.2 L -56.2,-13.7 L -54.4,-16.2 L -52.7,-18.6 L -51.1,-21.0 L -49.7,-23.4 L -48.4,-25.9 L -47.2,-28.5 L -46.0,-31.2 L -44.9,-34.0 L -43.7,-37.0 L -42.5,-40.1 L -41.1,-43.3 L -39.6,-46.5 L -37.8,-49.8 L -35.7,-53.1 L -33.3,-56.3 L -30.7,-59.4 L -27.7,-62.3 L -24.4,-65.0 L -20.8,-67.3 L -17.0,-69.3 L -12.9,-70.8 L -8.7,-72.0 L -4.3,-72.6 L 0.0,-72.8 L 4.4,-72.4 L 8.7,-71.6 L 12.9,-70.3 L 16.9,-68.6 L 20.7,-66.5 L 24.2,-64.1 L 27.4,-61.4 L 30.3,-58.4 L 32.8,-55.3 L 35.1,-52.1 L 37.1,-48.9 L 38.9,-45.7 L 40.5,-42.5" fill="none" stroke="url(#swirlRose)" stroke-width="1.1" opacity="0.57"/><path d="M 68.1,46.6 L 63.8,48.8 L 59.4,50.7 L 54.8,52.2 L 50.3,53.4 L 45.7,54.3 L 41.3,55.0 L 36.9,55.5 L 32.7,55.8 L 28.6,56.1 L 24.7,56.4 L 21.0,56.6 L 17.3,56.9 L 13.8,57.3 L 10.3,57.8 L 6.8,58.5 L 3.3,59.2 L -0.3,60.0 L -4.0,61.0 L -7.9,61.9 L -11.9,62.9 L -16.0,63.8 L -20.4,64.5 L -24.9,65.2 L -29.6,65.5 L -34.4,65.7 L -39.3,65.4 L -44.1,64.8 L -48.9,63.8 L -53.6,62.4 L -58.2,60.6 L -62.4,58.3 L -66.4,55.5 L -69.9,52.4 L -73.0,49.0 L -75.7,45.2 L -77.8,41.1 L -79.4,36.9 L -80.4,32.5 L -81.0,28.1 L -81.0,23.6 L -80.5,19.2 L -79.7,14.9 L -78.5,10.7 L -77.0,6.6 L -75.2,2.8 L -73.3,-0.9 L -71.3,-4.4 L -69.3,-7.7 L -67.3,-10.8 L -65.3,-13.8 L -63.5,-16.8 L -61.7,-19.7 L -60.1,-22.5 L -58.7,-25.4 L -57.3,-28.4 L -56.0,-31.5 L -54.8,-34.6 L -53.5,-37.9 L -52.2,-41.3 L -50.8,-44.9 L -49.3,-48.5 L -47.5,-52.2 L -45.5,-55.9 L -43.1,-59.6 L -40.5,-63.2 L -37.5,-66.7 L -34.1,-69.9 L -30.4,-72.9 L -26.4,-75.5 L -22.1,-77.7 L -17.6,-79.5 L -12.8,-80.8 L -7.9,-81.6 L -3.0,-81.9 L 2.0,-81.6 L 6.8,-80.8 L 11.6,-79.5 L 16.2,-77.8 L 20.5,-75.6 L 24.6,-73.0 L 28.3,-70.1 L 31.7,-67.0 L 34.9,-63.7 L 37.7,-60.3 L 40.2,-56.9 L 42.4,-53.4 L 44.4,-50.0 L 46.3,-46.6 L 48.0,-43.4 L 49.7,-40.2" fill="none" stroke="url(#swirlRose)" stroke-width="1.1" opacity="0.54"/><path d="M 63.3,56.4 L 58.4,57.9 L 53.4,59.2 L 48.6,60.3 L 43.8,61.1 L 39.2,61.8 L 34.7,62.4 L 30.3,62.9 L 26.2,63.5 L 22.1,64.1 L 18.1,64.7 L 14.1,65.5 L 10.2,66.4 L 6.2,67.3 L 2.2,68.4 L -2.0,69.5 L -6.3,70.7 L -10.8,71.8 L -15.5,72.8 L -20.4,73.8 L -25.4,74.5 L -30.6,74.9 L -36.0,75.1 L -41.4,74.8 L -46.8,74.2 L -52.1,73.1 L -57.4,71.6 L -62.4,69.5 L -67.2,67.0 L -71.6,64.0 L -75.6,60.6 L -79.1,56.8 L -82.2,52.7 L -84.7,48.3 L -86.6,43.6 L -88.0,38.8 L -88.8,33.9 L -89.0,29.0 L -88.8,24.1 L -88.2,19.2 L -87.1,14.5 L -85.7,10.0 L -84.1,5.7 L -82.3,1.5 L -80.4,-2.5 L -78.4,-6.3 L -76.4,-9.9 L -74.5,-13.4 L -72.7,-16.9 L -70.9,-20.2 L -69.3,-23.6 L -67.8,-26.9 L -66.5,-30.4 L -65.1,-33.9 L -63.8,-37.6 L -62.5,-41.3 L -61.1,-45.2 L -59.6,-49.2 L -57.9,-53.3 L -56.0,-57.5 L -53.7,-61.6 L -51.1,-65.7 L -48.2,-69.8 L -44.9,-73.6 L -41.2,-77.2 L -37.1,-80.5 L -32.6,-83.5 L -27.9,-86.0 L -22.8,-88.0 L -17.6,-89.5 L -12.2,-90.5 L -6.7,-90.9 L -1.2,-90.7 L 4.3,-90.0 L 9.6,-88.7 L 14.8,-86.9 L 19.7,-84.6 L 24.3,-82.0 L 28.6,-79.0 L 32.6,-75.8 L 36.3,-72.3 L 39.6,-68.7 L 42.6,-65.0 L 45.4,-61.3 L 47.9,-57.7 L 50.2,-54.1 L 52.5,-50.6 L 54.6,-47.2 L 56.7,-44.0 L 58.9,-40.8 L 61.1,-37.8" fill="none" stroke="url(#swirlRose)" stroke-width="1.6" opacity="0.52"/><path d="M 56.3,65.1 L 51.1,66.3 L 46.1,67.4 L 41.2,68.3 L 36.5,69.2 L 31.9,70.0 L 27.4,70.9 L 22.9,71.9 L 18.6,73.0 L 14.2,74.1 L 9.8,75.4 L 5.3,76.7 L 0.6,78.1 L -4.2,79.4 L -9.1,80.8 L -14.3,82.0 L -19.7,83.1 L -25.3,83.9 L -31.0,84.5 L -36.9,84.7 L -42.8,84.5 L -48.8,83.8 L -54.7,82.6 L -60.5,81.0 L -66.0,78.8 L -71.3,76.1 L -76.2,72.9 L -80.7,69.2 L -84.7,65.1 L -88.2,60.6 L -91.1,55.8 L -93.4,50.8 L -95.1,45.5 L -96.2,40.2 L -96.8,34.8 L -96.8,29.4 L -96.3,24.1 L -95.5,18.9 L -94.3,13.9 L -92.8,9.0 L -91.1,4.4 L -89.3,-0.1 L -87.4,-4.4 L -85.5,-8.5 L -83.7,-12.5 L -81.9,-16.4 L -80.2,-20.2 L -78.7,-24.1 L -77.2,-27.9 L -75.9,-31.9 L -74.5,-35.9 L -73.2,-40.0 L -71.9,-44.2 L -70.4,-48.6 L -68.8,-53.1 L -67.0,-57.7 L -64.9,-62.3 L -62.4,-66.9 L -59.6,-71.5 L -56.4,-75.9 L -52.8,-80.2 L -48.8,-84.2 L -44.3,-87.9 L -39.5,-91.1 L -34.3,-94.0 L -28.8,-96.3 L -23.0,-98.0 L -17.1,-99.2 L -11.1,-99.7 L -5.0,-99.7 L 1.0,-99.0 L 6.9,-97.7 L 12.7,-96.0 L 18.2,-93.7 L 23.4,-91.0 L 28.3,-87.9 L 32.8,-84.6 L 37.0,-81.0 L 40.9,-77.2 L 44.5,-73.4 L 47.8,-69.5 L 50.8,-65.7 L 53.7,-61.9 L 56.4,-58.2 L 59.0,-54.6 L 61.6,-51.1 L 64.2,-47.7 L 66.9,-44.4 L 69.6,-41.2 L 72.5,-37.9 L 75.5,-34.7" fill="none" stroke="url(#swirlRose)" stroke-width="1.1" opacity="0.50"/><path d="M 48.2,73.9 L 43.1,75.1 L 38.1,76.3 L 33.2,77.6 L 28.4,78.9 L 23.6,80.3 L 18.8,81.7 L 14.0,83.3 L 9.0,84.9 L 3.9,86.5 L -1.3,88.2 L -6.8,89.8 L -12.5,91.2 L -18.4,92.5 L -24.5,93.5 L -30.8,94.1 L -37.2,94.4 L -43.7,94.3 L -50.2,93.6 L -56.6,92.4 L -62.9,90.7 L -69.0,88.4 L -74.8,85.5 L -80.3,82.1 L -85.3,78.2 L -89.7,73.8 L -93.7,69.0 L -97.0,63.8 L -99.7,58.4 L -101.8,52.7 L -103.2,47.0 L -104.1,41.1 L -104.4,35.3 L -104.2,29.5 L -103.6,23.8 L -102.6,18.3 L -101.3,13.0 L -99.8,7.8 L -98.1,2.9 L -96.4,-1.9 L -94.6,-6.5 L -92.9,-11.0 L -91.2,-15.4 L -89.6,-19.7 L -88.2,-24.1 L -86.8,-28.4 L -85.4,-32.8 L -84.2,-37.3 L -82.9,-41.9 L -81.5,-46.7 L -80.0,-51.5 L -78.3,-56.5 L -76.4,-61.6 L -74.2,-66.7 L -71.6,-71.8 L -68.6,-76.8 L -65.2,-81.7 L -61.3,-86.4 L -57.0,-90.8 L -52.2,-94.9 L -46.9,-98.5 L -41.3,-101.6 L -35.4,-104.2 L -29.1,-106.3 L -22.7,-107.6 L -16.1,-108.4 L -9.5,-108.4 L -2.9,-107.9 L 3.6,-106.7 L 9.9,-105.0 L 16.0,-102.7 L 21.8,-100.0 L 27.3,-96.9 L 32.4,-93.4 L 37.2,-89.7 L 41.7,-85.9 L 45.8,-81.9 L 49.6,-77.9 L 53.2,-73.9 L 56.6,-69.9 L 59.8,-66.0 L 62.9,-62.2 L 66.0,-58.5 L 69.1,-54.9 L 72.3,-51.4 L 75.5,-48.0 L 78.8,-44.5 L 82.3,-41.0 L 85.8,-37.4 L 89.4,-33.7 L 93.1,-29.8" fill="none" stroke="url(#swirlRose)" stroke-width="1.1" opacity="0.48"/><path d="M 39.5,84.0 L 34.3,85.6 L 29.2,87.4 L 24.0,89.2 L 18.7,91.1 L 13.4,93.0 L 7.8,94.9 L 2.1,96.9 L -3.8,98.7 L -10.0,100.4 L -16.4,101.9 L -23.0,103.1 L -29.8,103.9 L -36.8,104.3 L -43.8,104.2 L -50.9,103.6 L -57.9,102.4 L -64.7,100.6 L -71.4,98.2 L -77.8,95.2 L -83.7,91.6 L -89.2,87.5 L -94.2,82.8 L -98.6,77.7 L -102.4,72.2 L -105.5,66.4 L -108.0,60.4 L -109.8,54.2 L -111.0,47.9 L -111.6,41.6 L -111.7,35.3 L -111.4,29.2 L -110.6,23.2 L -109.6,17.4 L -108.3,11.8 L -106.8,6.3 L -105.2,1.1 L -103.6,-4.0 L -102.1,-9.0 L -100.5,-13.9 L -99.1,-18.7 L -97.7,-23.5 L -96.4,-28.3 L -95.2,-33.2 L -94.0,-38.2 L -92.7,-43.3 L -91.4,-48.6 L -89.9,-53.9 L -88.3,-59.4 L -86.3,-65.0 L -84.0,-70.6 L -81.3,-76.1 L -78.1,-81.7 L -74.5,-87.0 L -70.3,-92.2 L -65.7,-97.0 L -60.6,-101.5 L -55.0,-105.5 L -48.9,-109.0 L -42.5,-111.9 L -35.8,-114.2 L -28.9,-115.8 L -21.8,-116.8 L -14.6,-117.0 L -7.4,-116.6 L -0.4,-115.6 L 6.5,-113.9 L 13.2,-111.7 L 19.6,-108.9 L 25.7,-105.8 L 31.4,-102.3 L 36.8,-98.6 L 41.8,-94.6 L 46.5,-90.5 L 50.8,-86.4 L 55.0,-82.2 L 58.9,-78.1 L 62.7,-74.1 L 66.3,-70.1 L 69.9,-66.3 L 73.6,-62.5 L 77.2,-58.8 L 81.0,-55.2 L 84.8,-51.5 L 88.7,-47.8 L 92.8,-44.0 L 96.8,-40.0 L 101.0,-35.8 L 105.0,-31.5 L 109.0,-26.8 L 112.8,-21.9" fill="none" stroke="url(#swirlRose)" stroke-width="1.6" opacity="0.46"/><path d="M 29.7,96.4 L 24.1,98.7 L 18.3,100.9 L 12.4,103.2 L 6.2,105.5 L -0.2,107.6 L -6.8,109.6 L -13.7,111.3 L -20.8,112.7 L -28.2,113.7 L -35.7,114.3 L -43.2,114.3 L -50.9,113.7 L -58.4,112.6 L -65.9,110.8 L -73.1,108.3 L -80.0,105.2 L -86.5,101.4 L -92.6,97.1 L -98.1,92.2 L -103.0,86.8 L -107.2,80.9 L -110.8,74.8 L -113.7,68.4 L -115.9,61.8 L -117.5,55.1 L -118.5,48.4 L -118.9,41.7 L -118.9,35.1 L -118.4,28.6 L -117.6,22.3 L -116.5,16.2 L -115.3,10.3 L -114.0,4.6 L -112.6,-1.0 L -111.2,-6.4 L -109.8,-11.8 L -108.6,-17.1 L -107.4,-22.4 L -106.2,-27.7 L -105.1,-33.1 L -104.0,-38.6 L -102.9,-44.2 L -101.6,-49.9 L -100.2,-55.8 L -98.5,-61.8 L -96.5,-67.9 L -94.1,-74.0 L -91.3,-80.1 L -88.0,-86.1 L -84.2,-91.9 L -79.9,-97.5 L -75.0,-102.8 L -69.5,-107.7 L -63.6,-112.1 L -57.2,-116.0 L -50.3,-119.3 L -43.2,-121.9 L -35.7,-123.8 L -28.1,-125.0 L -20.4,-125.4 L -12.6,-125.2 L -5.0,-124.2 L 2.5,-122.7 L 9.8,-120.5 L 16.7,-117.8 L 23.4,-114.7 L 29.7,-111.2 L 35.7,-107.4 L 41.3,-103.4 L 46.5,-99.2 L 51.5,-95.0 L 56.2,-90.8 L 60.7,-86.6 L 65.0,-82.4 L 69.2,-78.3 L 73.4,-74.4 L 77.5,-70.5 L 81.7,-66.6 L 86.0,-62.8 L 90.4,-58.9 L 94.8,-55.0 L 99.3,-50.9 L 103.9,-46.7 L 108.5,-42.3 L 113.1,-37.7 L 117.5,-32.7 L 121.7,-27.5 L 125.7,-21.9 L 129.3,-16.0 L 132.4,-9.8" fill="none" stroke="url(#swirlRose)" stroke-width="1.1" opacity="0.44"/><path d="M 17.5,111.4 L 11.0,114.0 L 4.1,116.4 L -3.0,118.7 L -10.4,120.7 L -18.0,122.4 L -25.8,123.6 L -33.9,124.3 L -42.0,124.5 L -50.2,124.0 L -58.3,122.9 L -66.4,121.1 L -74.1,118.6 L -81.6,115.4 L -88.7,111.5 L -95.3,106.9 L -101.3,101.8 L -106.7,96.1 L -111.5,90.0 L -115.5,83.6 L -118.9,76.8 L -121.5,69.8 L -123.5,62.7 L -124.9,55.6 L -125.7,48.5 L -126.0,41.4 L -125.8,34.5 L -125.3,27.8 L -124.5,21.2 L -123.6,14.8 L -122.5,8.6 L -121.4,2.6 L -120.2,-3.3 L -119.1,-9.2 L -118.0,-15.0 L -117.0,-20.7 L -116.1,-26.5 L -115.1,-32.4 L -114.2,-38.4 L -113.2,-44.5 L -112.0,-50.8 L -110.7,-57.2 L -109.0,-63.7 L -107.1,-70.2 L -104.7,-76.9 L -101.8,-83.5 L -98.4,-90.0 L -94.4,-96.3 L -89.9,-102.4 L -84.7,-108.2 L -79.0,-113.5 L -72.7,-118.4 L -65.9,-122.6 L -58.7,-126.3 L -51.1,-129.2 L -43.2,-131.4 L -35.0,-132.8 L -26.8,-133.5 L -18.5,-133.5 L -10.3,-132.7 L -2.2,-131.3 L 5.6,-129.2 L 13.2,-126.6 L 20.5,-123.5 L 27.4,-120.0 L 34.0,-116.2 L 40.2,-112.2 L 46.0,-108.0 L 51.6,-103.8 L 56.8,-99.5 L 61.9,-95.2 L 66.8,-90.9 L 71.5,-86.8 L 76.3,-82.7 L 81.0,-78.7 L 85.7,-74.7 L 90.6,-70.7 L 95.5,-66.7 L 100.5,-62.6 L 105.5,-58.4 L 110.6,-54.0 L 115.8,-49.3 L 120.8,-44.4 L 125.7,-39.2 L 130.4,-33.6 L 134.8,-27.7 L 138.8,-21.5 L 142.3,-14.9 L 145.2,-8.0 L 147.5,-0.9 L 149.0,6.4" fill="none" stroke="url(#swirlRose)" stroke-width="1.1" opacity="0.42"/><path d="M 1.5,127.8 L -6.3,130.1 L -14.4,132.0 L -22.8,133.5 L -31.4,134.4 L -40.1,134.7 L -48.8,134.4 L -57.5,133.3 L -66.1,131.5 L -74.5,129.0 L -82.6,125.7 L -90.2,121.7 L -97.4,117.0 L -103.9,111.7 L -109.9,105.8 L -115.2,99.4 L -119.7,92.7 L -123.5,85.6 L -126.7,78.2 L -129.1,70.7 L -130.9,63.2 L -132.0,55.7 L -132.7,48.2 L -132.9,40.9 L -132.7,33.7 L -132.3,26.7 L -131.6,19.8 L -130.9,13.2 L -130.0,6.7 L -129.1,0.3 L -128.3,-6.0 L -127.5,-12.3 L -126.7,-18.5 L -126.0,-24.8 L -125.3,-31.2 L -124.5,-37.7 L -123.6,-44.3 L -122.6,-51.1 L -121.4,-58.0 L -119.9,-65.0 L -117.9,-72.1 L -115.5,-79.2 L -112.6,-86.3 L -109.2,-93.4 L -105.1,-100.2 L -100.4,-106.8 L -95.0,-113.1 L -89.0,-118.9 L -82.4,-124.2 L -75.3,-128.8 L -67.6,-132.9 L -59.6,-136.1 L -51.2,-138.7 L -42.6,-140.4 L -33.8,-141.4 L -25.0,-141.6 L -16.2,-141.0 L -7.5,-139.7 L 0.9,-137.8 L 9.1,-135.3 L 17.0,-132.3 L 24.5,-128.8 L 31.6,-125.1 L 38.4,-121.1 L 44.9,-116.9 L 51.0,-112.6 L 56.9,-108.3 L 62.5,-104.0 L 68.0,-99.7 L 73.3,-95.5 L 78.6,-91.3 L 83.9,-87.2 L 89.3,-83.1 L 94.7,-79.1 L 100.1,-74.9 L 105.7,-70.7 L 111.3,-66.3 L 117.0,-61.7 L 122.6,-56.9 L 128.2,-51.7 L 133.6,-46.2 L 138.8,-40.3 L 143.6,-34.1 L 148.0,-27.5 L 151.9,-20.5 L 155.2,-13.2 L 157.8,-5.7 L 159.6,2.1 L 160.6,10.0 L 160.7,17.9 L 159.9,25.8" fill="none" stroke="url(#swirlRose)" stroke-width="1.6" opacity="0.40"/><path d="M -19.1,143.3 L -28.2,144.5 L -37.4,145.0 L -46.7,144.8 L -56.0,143.9 L -65.2,142.1 L -74.1,139.6 L -82.8,136.3 L -91.0,132.2 L -98.8,127.4 L -105.9,121.9 L -112.4,115.8 L -118.2,109.1 L -123.3,102.1 L -127.6,94.7 L -131.2,87.0 L -134.1,79.1 L -136.3,71.2 L -138.0,63.3 L -139.0,55.4 L -139.6,47.7 L -139.8,40.0 L -139.7,32.6 L -139.4,25.3 L -139.0,18.2 L -138.5,11.3 L -137.9,4.4 L -137.4,-2.3 L -136.8,-9.0 L -136.4,-15.7 L -135.9,-22.5 L -135.4,-29.4 L -134.9,-36.4 L -134.3,-43.5 L -133.4,-50.8 L -132.3,-58.2 L -130.9,-65.7 L -129.1,-73.4 L -126.7,-81.0 L -123.8,-88.7 L -120.3,-96.2 L -116.1,-103.6 L -111.3,-110.7 L -105.7,-117.5 L -99.5,-123.7 L -92.6,-129.5 L -85.1,-134.6 L -77.1,-139.0 L -68.7,-142.7 L -59.8,-145.6 L -50.7,-147.7 L -41.4,-148.9 L -32.0,-149.3 L -22.7,-149.0 L -13.5,-147.9 L -4.5,-146.1 L 4.3,-143.8 L 12.8,-140.9 L 20.9,-137.5 L 28.7,-133.9 L 36.1,-129.9 L 43.1,-125.7 L 49.9,-121.5 L 56.3,-117.2 L 62.5,-112.8 L 68.6,-108.6 L 74.6,-104.3 L 80.5,-100.1 L 86.3,-96.0 L 92.3,-91.9 L 98.2,-87.7 L 104.3,-83.5 L 110.4,-79.2 L 116.6,-74.6 L 122.9,-69.9 L 129.1,-64.8 L 135.2,-59.5 L 141.1,-53.7 L 146.8,-47.6 L 152.1,-41.1 L 157.0,-34.1 L 161.3,-26.8 L 165.0,-19.1 L 167.9,-11.1 L 170.0,-2.9 L 171.2,5.5 L 171.6,13.9 L 170.9,22.4 L 169.4,30.7 L 166.9,38.9 L 163.5,46.7" fill="none" stroke="url(#swirlRose)" stroke-width="1.1" opacity="0.38"/><path d="M -43.9,155.3 L -53.8,154.4 L -63.5,152.8 L -73.1,150.3 L -82.3,147.0 L -91.2,142.8 L -99.5,137.9 L -107.2,132.2 L -114.3,126.0 L -120.7,119.1 L -126.3,111.8 L -131.2,104.1 L -135.3,96.1 L -138.6,87.9 L -141.3,79.6 L -143.4,71.3 L -144.9,63.1 L -145.9,54.9 L -146.6,46.9 L -146.9,39.0 L -147.0,31.3 L -146.9,23.8 L -146.7,16.4 L -146.5,9.1 L -146.3,1.9 L -146.1,-5.2 L -146.0,-12.4 L -145.8,-19.7 L -145.6,-27.0 L -145.4,-34.5 L -145.0,-42.1 L -144.4,-49.9 L -143.5,-57.8 L -142.2,-65.9 L -140.5,-74.0 L -138.2,-82.3 L -135.3,-90.5 L -131.8,-98.5 L -127.6,-106.5 L -122.6,-114.1 L -116.9,-121.3 L -110.4,-128.1 L -103.3,-134.3 L -95.5,-139.9 L -87.1,-144.8 L -78.3,-148.9 L -69.0,-152.1 L -59.4,-154.5 L -49.6,-156.1 L -39.7,-156.8 L -29.8,-156.7 L -20.0,-155.9 L -10.4,-154.3 L -1.1,-152.1 L 8.0,-149.3 L 16.7,-146.1 L 25.1,-142.5 L 33.1,-138.7 L 40.7,-134.6 L 48.1,-130.4 L 55.1,-126.1 L 62.0,-121.9 L 68.7,-117.6 L 75.2,-113.4 L 81.7,-109.2 L 88.2,-105.0 L 94.7,-100.9 L 101.3,-96.7 L 108.0,-92.4 L 114.7,-88.0 L 121.5,-83.4 L 128.3,-78.5 L 135.1,-73.3 L 141.8,-67.7 L 148.3,-61.8 L 154.5,-55.4 L 160.3,-48.6 L 165.7,-41.3 L 170.4,-33.6 L 174.5,-25.6 L 177.8,-17.2 L 180.2,-8.5 L 181.7,0.3 L 182.3,9.3 L 181.9,18.2 L 180.4,27.1 L 178.0,35.8 L 174.7,44.2 L 170.4,52.3 L 165.4,60.0 L 159.6,67.2" fill="none" stroke="url(#swirlRose)" stroke-width="1.1" opacity="0.35"/><path d="M -71.3,161.1 L -81.2,157.7 L -90.6,153.6 L -99.5,148.6 L -107.9,142.8 L -115.5,136.4 L -122.5,129.3 L -128.7,121.7 L -134.1,113.8 L -138.7,105.5 L -142.6,97.0 L -145.8,88.4 L -148.4,79.7 L -150.4,71.1 L -151.8,62.5 L -152.9,54.1 L -153.7,45.9 L -154.2,37.8 L -154.5,29.8 L -154.7,22.0 L -154.9,14.3 L -155.1,6.7 L -155.3,-0.9 L -155.5,-8.5 L -155.7,-16.2 L -155.8,-24.0 L -155.9,-32.0 L -155.8,-40.1 L -155.4,-48.4 L -154.8,-56.9 L -153.7,-65.5 L -152.1,-74.2 L -149.9,-82.9 L -147.1,-91.6 L -143.6,-100.3 L -139.3,-108.7 L -134.3,-116.9 L -128.4,-124.7 L -121.8,-132.0 L -114.4,-138.7 L -106.3,-144.7 L -97.6,-150.0 L -88.4,-154.6 L -78.7,-158.2 L -68.6,-161.0 L -58.4,-162.9 L -48.0,-163.9 L -37.5,-164.1 L -27.2,-163.5 L -17.0,-162.2 L -7.1,-160.2 L 2.6,-157.6 L 11.9,-154.6 L 20.9,-151.1 L 29.5,-147.4 L 37.8,-143.4 L 45.7,-139.3 L 53.4,-135.1 L 60.8,-130.9 L 68.1,-126.7 L 75.3,-122.6 L 82.4,-118.4 L 89.5,-114.3 L 96.6,-110.2 L 103.8,-106.0 L 111.1,-101.7 L 118.5,-97.2 L 125.9,-92.5 L 133.3,-87.5 L 140.7,-82.2 L 148.0,-76.5 L 155.0,-70.3 L 161.8,-63.7 L 168.2,-56.6 L 174.0,-49.1 L 179.2,-41.0 L 183.7,-32.6 L 187.4,-23.8 L 190.2,-14.7 L 192.0,-5.4 L 192.9,4.0 L 192.6,13.5 L 191.4,22.9 L 189.1,32.1 L 185.8,41.1 L 181.6,49.7 L 176.5,58.0 L 170.7,65.7 L 164.2,73.0 L 157.2,79.7 L 149.7,85.9" fill="none" stroke="url(#swirlRose)" stroke-width="1.6" opacity="0.33"/><path d="M -98.9,159.4 L -107.8,153.5 L -116.1,146.9 L -123.6,139.7 L -130.4,131.9 L -136.4,123.7 L -141.6,115.2 L -146.0,106.4 L -149.8,97.5 L -152.8,88.5 L -155.3,79.5 L -157.3,70.6 L -158.9,61.8 L -160.1,53.2 L -161.0,44.7 L -161.8,36.4 L -162.5,28.2 L -163.1,20.1 L -163.7,12.0 L -164.3,4.0 L -164.9,-4.1 L -165.5,-12.2 L -166.0,-20.5 L -166.4,-28.9 L -166.6,-37.5 L -166.6,-46.3 L -166.2,-55.3 L -165.3,-64.4 L -163.9,-73.7 L -161.9,-83.0 L -159.2,-92.2 L -155.7,-101.4 L -151.4,-110.4 L -146.3,-119.1 L -140.4,-127.4 L -133.6,-135.3 L -126.0,-142.5 L -117.6,-149.0 L -108.6,-154.8 L -99.0,-159.8 L -88.9,-163.9 L -78.4,-167.1 L -67.7,-169.3 L -56.8,-170.7 L -45.8,-171.2 L -34.9,-170.9 L -24.2,-169.8 L -13.7,-168.1 L -3.4,-165.7 L 6.5,-162.9 L 16.1,-159.6 L 25.3,-156.0 L 34.1,-152.2 L 42.7,-148.2 L 51.0,-144.2 L 59.0,-140.1 L 66.9,-136.0 L 74.7,-131.9 L 82.5,-127.8 L 90.2,-123.8 L 98.0,-119.7 L 105.8,-115.5 L 113.7,-111.2 L 121.7,-106.8 L 129.7,-102.0 L 137.8,-97.0 L 145.8,-91.6 L 153.7,-85.7 L 161.3,-79.4 L 168.7,-72.6 L 175.6,-65.2 L 182.0,-57.4 L 187.7,-49.0 L 192.7,-40.2 L 196.8,-31.1 L 199.9,-21.5 L 202.1,-11.8 L 203.2,-1.9 L 203.2,8.1 L 202.2,18.0 L 200.1,27.8 L 196.9,37.3 L 192.7,46.5 L 187.7,55.3 L 181.9,63.7 L 175.3,71.5 L 168.2,78.8 L 160.6,85.5 L 152.6,91.7 L 144.4,97.4 L 136.0,102.6" fill="none" stroke="url(#swirlRose)" stroke-width="1.1" opacity="0.31"/><path d="M -124.1,150.3 L -131.5,142.3 L -138.1,133.9 L -143.9,125.1 L -148.9,116.1 L -153.2,106.8 L -156.8,97.6 L -159.8,88.3 L -162.3,79.0 L -164.4,69.9 L -166.1,60.9 L -167.5,52.1 L -168.8,43.4 L -170.0,34.8 L -171.1,26.3 L -172.1,17.9 L -173.2,9.4 L -174.2,0.9 L -175.2,-7.7 L -176.1,-16.4 L -176.9,-25.3 L -177.5,-34.4 L -177.8,-43.7 L -177.6,-53.1 L -177.1,-62.8 L -175.9,-72.6 L -174.0,-82.4 L -171.5,-92.2 L -168.1,-102.0 L -163.8,-111.5 L -158.7,-120.8 L -152.6,-129.6 L -145.7,-138.0 L -137.9,-145.8 L -129.3,-152.8 L -120.0,-159.1 L -110.1,-164.5 L -99.6,-169.0 L -88.7,-172.7 L -77.5,-175.3 L -66.1,-177.1 L -54.7,-177.9 L -43.2,-177.9 L -31.9,-177.1 L -20.8,-175.7 L -10.0,-173.6 L 0.5,-170.9 L 10.6,-167.9 L 20.5,-164.5 L 29.9,-160.9 L 39.1,-157.1 L 48.0,-153.2 L 56.7,-149.3 L 65.2,-145.3 L 73.6,-141.3 L 81.9,-137.4 L 90.3,-133.4 L 98.7,-129.4 L 107.2,-125.3 L 115.7,-121.1 L 124.4,-116.6 L 133.1,-111.9 L 141.7,-106.8 L 150.4,-101.3 L 158.9,-95.4 L 167.2,-88.9 L 175.1,-81.9 L 182.6,-74.3 L 189.5,-66.2 L 195.8,-57.6 L 201.2,-48.4 L 205.8,-38.9 L 209.4,-29.0 L 211.9,-18.8 L 213.3,-8.4 L 213.6,2.1 L 212.8,12.5 L 210.9,22.8 L 207.8,32.9 L 203.8,42.7 L 198.8,52.1 L 193.0,61.0 L 186.4,69.4 L 179.3,77.2 L 171.6,84.6 L 163.5,91.3 L 155.2,97.6 L 146.6,103.3 L 138.0,108.7 L 129.3,113.6 L 120.7,118.2" fill="none" stroke="url(#swirlRose)" stroke-width="1.1" opacity="0.29"/><path d="M -145.5,135.3 L -151.1,126.0 L -156.0,116.5 L -160.2,106.9 L -163.8,97.4 L -166.8,87.8 L -169.4,78.4 L -171.7,69.1 L -173.7,59.9 L -175.5,50.8 L -177.1,41.9 L -178.7,33.0 L -180.3,24.2 L -181.8,15.4 L -183.3,6.5 L -184.8,-2.5 L -186.2,-11.7 L -187.4,-21.0 L -188.3,-30.6 L -189.0,-40.4 L -189.2,-50.3 L -188.9,-60.5 L -188.0,-70.8 L -186.4,-81.2 L -183.9,-91.6 L -180.7,-101.9 L -176.5,-112.0 L -171.3,-121.8 L -165.2,-131.2 L -158.2,-140.2 L -150.2,-148.4 L -141.4,-156.0 L -131.9,-162.8 L -121.6,-168.7 L -110.8,-173.7 L -99.5,-177.8 L -87.8,-180.9 L -76.0,-183.0 L -64.0,-184.2 L -52.1,-184.6 L -40.2,-184.1 L -28.6,-183.0 L -17.2,-181.2 L -6.1,-178.8 L 4.6,-176.0 L 15.0,-172.9 L 25.1,-169.5 L 34.9,-165.9 L 44.4,-162.2 L 53.7,-158.4 L 62.8,-154.7 L 71.8,-150.9 L 80.8,-147.1 L 89.8,-143.3 L 98.9,-139.4 L 108.0,-135.4 L 117.2,-131.2 L 126.5,-126.8 L 135.8,-122.1 L 145.2,-117.0 L 154.4,-111.5 L 163.6,-105.4 L 172.5,-98.8 L 181.0,-91.7 L 189.1,-83.9 L 196.6,-75.6 L 203.4,-66.7 L 209.4,-57.2 L 214.4,-47.3 L 218.4,-37.0 L 221.4,-26.3 L 223.1,-15.5 L 223.8,-4.5 L 223.2,6.4 L 221.5,17.3 L 218.6,27.9 L 214.7,38.2 L 209.8,48.2 L 204.1,57.7 L 197.6,66.7 L 190.4,75.1 L 182.6,83.0 L 174.5,90.4 L 166.1,97.2 L 157.4,103.5 L 148.7,109.4 L 139.9,114.9 L 131.1,120.1 L 122.4,125.1 L 113.8,129.9 L 105.2,134.6" fill="none" stroke="url(#swirlRose)" stroke-width="1.6" opacity="0.27"/><path d="M -163.0,116.6 L -167.2,106.8 L -170.8,97.0 L -174.0,87.2 L -176.8,77.6 L -179.4,68.1 L -181.7,58.8 L -184.0,49.5 L -186.1,40.3 L -188.2,31.1 L -190.2,21.9 L -192.3,12.6 L -194.2,3.2 L -196.1,-6.4 L -197.7,-16.2 L -199.1,-26.2 L -200.2,-36.5 L -200.8,-46.9 L -200.8,-57.6 L -200.2,-68.4 L -198.8,-79.4 L -196.6,-90.3 L -193.4,-101.2 L -189.3,-111.8 L -184.2,-122.2 L -178.1,-132.2 L -171.0,-141.7 L -162.9,-150.5 L -153.9,-158.7 L -144.1,-166.0 L -133.5,-172.4 L -122.4,-177.9 L -110.7,-182.4 L -98.6,-186.0 L -86.3,-188.5 L -73.9,-190.2 L -61.5,-190.9 L -49.1,-190.8 L -36.9,-190.0 L -25.0,-188.5 L -13.3,-186.4 L -2.0,-183.9 L 9.0,-181.1 L 19.7,-177.9 L 30.0,-174.6 L 40.1,-171.1 L 50.0,-167.6 L 59.8,-164.0 L 69.4,-160.5 L 79.1,-156.9 L 88.7,-153.2 L 98.4,-149.5 L 108.2,-145.6 L 118.0,-141.6 L 128.0,-137.3 L 138.0,-132.6 L 148.0,-127.5 L 157.9,-122.0 L 167.7,-115.9 L 177.3,-109.2 L 186.5,-101.9 L 195.1,-94.0 L 203.2,-85.4 L 210.6,-76.3 L 217.1,-66.5 L 222.6,-56.2 L 227.1,-45.5 L 230.5,-34.5 L 232.6,-23.2 L 233.6,-11.8 L 233.3,-0.3 L 231.9,11.1 L 229.2,22.3 L 225.5,33.2 L 220.7,43.7 L 215.1,53.8 L 208.6,63.3 L 201.5,72.4 L 193.7,80.9 L 185.6,88.8 L 177.1,96.2 L 168.4,103.2 L 159.6,109.6 L 150.7,115.8 L 141.8,121.5 L 133.0,127.1 L 124.2,132.5 L 115.5,137.7 L 106.8,142.9 L 98.0,148.0 L 89.3,153.1" fill="none" stroke="url(#swirlRose)" stroke-width="1.1" opacity="0.25"/><path d="M -178.1,96.4 L -181.5,86.6 L -184.7,76.8 L -187.6,67.1 L -190.4,57.5 L -193.1,48.0 L -195.8,38.5 L -198.4,28.9 L -201.0,19.2 L -203.5,9.4 L -205.8,-0.5 L -208.0,-10.8 L -209.8,-21.2 L -211.3,-31.9 L -212.3,-42.9 L -212.7,-54.1 L -212.4,-65.4 L -211.3,-76.9 L -209.3,-88.4 L -206.4,-99.8 L -202.4,-111.0 L -197.3,-122.0 L -191.2,-132.6 L -184.0,-142.6 L -175.8,-152.0 L -166.7,-160.7 L -156.7,-168.6 L -145.8,-175.5 L -134.4,-181.5 L -122.3,-186.5 L -109.9,-190.6 L -97.2,-193.6 L -84.3,-195.6 L -71.3,-196.8 L -58.5,-197.1 L -45.8,-196.6 L -33.3,-195.5 L -21.1,-193.8 L -9.2,-191.6 L 2.4,-189.0 L 13.6,-186.2 L 24.6,-183.2 L 35.3,-180.0 L 45.8,-176.7 L 56.2,-173.4 L 66.4,-170.1 L 76.7,-166.7 L 87.0,-163.3 L 97.3,-159.7 L 107.7,-156.1 L 118.2,-152.2 L 128.9,-148.0 L 139.5,-143.4 L 150.2,-138.4 L 160.8,-132.9 L 171.3,-126.8 L 181.5,-120.0 L 191.3,-112.6 L 200.7,-104.6 L 209.4,-95.8 L 217.3,-86.4 L 224.4,-76.3 L 230.4,-65.7 L 235.4,-54.7 L 239.2,-43.2 L 241.8,-31.5 L 243.1,-19.6 L 243.2,-7.6 L 242.0,4.3 L 239.6,16.0 L 236.1,27.5 L 231.5,38.6 L 226.0,49.2 L 219.6,59.4 L 212.5,69.0 L 204.8,78.1 L 196.7,86.7 L 188.2,94.7 L 179.5,102.2 L 170.6,109.3 L 161.7,116.0 L 152.7,122.4 L 143.8,128.6 L 134.9,134.5 L 126.1,140.4 L 117.3,146.2 L 108.4,151.9 L 99.5,157.6 L 90.4,163.3 L 81.1,169.0 L 71.5,174.7" fill="none" stroke="url(#swirlRose)" stroke-width="1.1" opacity="0.23"/><path d="M -193.1,75.9 L -196.5,66.0 L -199.8,56.2 L -203.1,46.3 L -206.3,36.4 L -209.4,26.4 L -212.5,16.3 L -215.4,5.9 L -218.1,-4.7 L -220.4,-15.6 L -222.4,-26.8 L -223.8,-38.2 L -224.6,-49.9 L -224.7,-61.7 L -223.9,-73.7 L -222.2,-85.8 L -219.4,-97.8 L -215.6,-109.6 L -210.6,-121.1 L -204.5,-132.3 L -197.4,-142.9 L -189.1,-152.9 L -179.8,-162.1 L -169.6,-170.6 L -158.5,-178.1 L -146.7,-184.6 L -134.4,-190.1 L -121.6,-194.6 L -108.4,-198.1 L -95.1,-200.7 L -81.7,-202.2 L -68.4,-203.0 L -55.1,-202.9 L -42.1,-202.2 L -29.4,-200.8 L -16.9,-199.0 L -4.8,-196.8 L 7.0,-194.3 L 18.5,-191.6 L 29.8,-188.7 L 40.9,-185.8 L 51.9,-182.8 L 62.8,-179.7 L 73.7,-176.6 L 84.6,-173.4 L 95.6,-170.1 L 106.6,-166.7 L 117.8,-162.9 L 129.1,-158.9 L 140.5,-154.5 L 151.8,-149.6 L 163.1,-144.1 L 174.3,-138.0 L 185.2,-131.2 L 195.6,-123.8 L 205.6,-115.6 L 214.9,-106.6 L 223.5,-97.0 L 231.1,-86.7 L 237.7,-75.8 L 243.2,-64.4 L 247.5,-52.5 L 250.5,-40.3 L 252.3,-28.0 L 252.7,-15.5 L 251.8,-3.1 L 249.7,9.2 L 246.4,21.2 L 242.1,32.9 L 236.7,44.1 L 230.5,54.9 L 223.5,65.1 L 215.9,74.8 L 207.8,84.0 L 199.4,92.6 L 190.7,100.7 L 181.8,108.5 L 172.9,115.8 L 163.9,122.8 L 154.9,129.6 L 146.0,136.1 L 137.1,142.6 L 128.1,149.0 L 119.2,155.3 L 110.1,161.7 L 100.9,168.0 L 91.4,174.3 L 81.6,180.5 L 71.5,186.6 L 61.0,192.6 L 50.0,198.2" fill="none" stroke="url(#swirlRose)" stroke-width="1.6" opacity="0.21"/><path d="M -210.0,54.7 L -213.9,44.5 L -217.6,34.2 L -221.3,23.7 L -224.8,12.9 L -228.0,1.9 L -230.9,-9.4 L -233.4,-21.0 L -235.3,-32.9 L -236.5,-45.0 L -237.0,-57.4 L -236.5,-69.9 L -235.1,-82.5 L -232.5,-95.1 L -228.9,-107.4 L -224.1,-119.6 L -218.1,-131.3 L -210.9,-142.5 L -202.5,-153.1 L -193.2,-162.9 L -182.8,-171.9 L -171.5,-180.0 L -159.5,-187.1 L -146.8,-193.2 L -133.6,-198.2 L -120.1,-202.2 L -106.4,-205.2 L -92.5,-207.2 L -78.7,-208.4 L -65.0,-208.8 L -51.5,-208.5 L -38.2,-207.6 L -25.3,-206.1 L -12.6,-204.3 L -0.2,-202.2 L 11.9,-199.8 L 23.8,-197.3 L 35.5,-194.7 L 47.0,-192.1 L 58.5,-189.3 L 70.0,-186.5 L 81.6,-183.6 L 93.2,-180.6 L 104.9,-177.4 L 116.8,-173.9 L 128.7,-170.1 L 140.8,-165.8 L 152.8,-161.0 L 164.8,-155.6 L 176.6,-149.6 L 188.2,-142.8 L 199.4,-135.3 L 210.0,-127.0 L 220.0,-117.9 L 229.1,-108.1 L 237.4,-97.5 L 244.6,-86.3 L 250.6,-74.6 L 255.4,-62.3 L 258.9,-49.8 L 261.0,-36.9 L 261.8,-24.0 L 261.3,-11.1 L 259.5,1.7 L 256.5,14.3 L 252.4,26.5 L 247.2,38.4 L 241.2,49.7 L 234.4,60.6 L 226.9,70.9 L 218.9,80.7 L 210.5,89.9 L 201.9,98.7 L 193.1,107.0 L 184.2,115.0 L 175.2,122.6 L 166.2,130.0 L 157.3,137.2 L 148.3,144.3 L 139.4,151.3 L 130.3,158.3 L 121.2,165.3 L 111.8,172.2 L 102.2,179.2 L 92.3,186.0 L 81.9,192.7 L 71.1,199.3 L 59.9,205.5 L 48.1,211.3 L 35.8,216.6 L 23.0,221.3" fill="none" stroke="url(#swirlRose)" stroke-width="1.1" opacity="0.18"/><path d="M -229.8,31.6 L -233.9,20.5 L -237.7,9.1 L -241.2,-2.6 L -244.2,-14.6 L -246.6,-26.9 L -248.3,-39.5 L -249.2,-52.4 L -249.1,-65.4 L -248.0,-78.6 L -245.7,-91.7 L -242.3,-104.6 L -237.6,-117.3 L -231.7,-129.7 L -224.6,-141.5 L -216.2,-152.7 L -206.7,-163.1 L -196.2,-172.7 L -184.8,-181.3 L -172.5,-189.0 L -159.6,-195.6 L -146.1,-201.2 L -132.2,-205.7 L -118.1,-209.2 L -103.8,-211.8 L -89.5,-213.4 L -75.4,-214.3 L -61.4,-214.4 L -47.6,-213.9 L -34.1,-213.0 L -20.9,-211.6 L -8.0,-209.8 L 4.7,-207.9 L 17.1,-205.8 L 29.4,-203.6 L 41.5,-201.3 L 53.6,-198.9 L 65.7,-196.5 L 77.9,-193.9 L 90.1,-191.2 L 102.5,-188.2 L 115.0,-185.0 L 127.7,-181.4 L 140.4,-177.3 L 153.1,-172.7 L 165.8,-167.4 L 178.3,-161.4 L 190.6,-154.7 L 202.5,-147.2 L 213.8,-138.8 L 224.4,-129.6 L 234.2,-119.6 L 243.1,-108.8 L 250.8,-97.3 L 257.4,-85.3 L 262.8,-72.7 L 266.7,-59.7 L 269.4,-46.4 L 270.6,-33.0 L 270.5,-19.6 L 269.0,-6.3 L 266.3,6.8 L 262.5,19.6 L 257.6,32.1 L 251.7,44.0 L 245.1,55.5 L 237.8,66.4 L 229.9,76.8 L 221.7,86.7 L 213.2,96.0 L 204.4,105.0 L 195.6,113.6 L 186.7,121.9 L 177.8,129.9 L 168.8,137.8 L 159.9,145.5 L 150.9,153.2 L 141.9,160.8 L 132.6,168.4 L 123.2,176.0 L 113.5,183.6 L 103.4,191.1 L 92.9,198.5 L 81.9,205.6 L 70.4,212.4 L 58.3,218.8 L 45.7,224.6 L 32.5,229.8 L 18.8,234.3 L 4.6,237.8 L -9.9,240.3" fill="none" stroke="url(#swirlRose)" stroke-width="1.1" opacity="0.16"/><path d="M -251.2,4.9 L -254.8,-7.5 L -257.8,-20.3 L -260.0,-33.4 L -261.3,-46.7 L -261.6,-60.3 L -260.9,-73.9 L -258.9,-87.6 L -255.7,-101.1 L -251.3,-114.4 L -245.5,-127.4 L -238.4,-139.8 L -230.1,-151.6 L -220.5,-162.6 L -209.9,-172.8 L -198.3,-182.0 L -185.8,-190.3 L -172.6,-197.5 L -158.9,-203.6 L -144.7,-208.7 L -130.2,-212.8 L -115.5,-215.8 L -100.8,-218.0 L -86.2,-219.4 L -71.7,-220.0 L -57.5,-220.0 L -43.5,-219.5 L -29.8,-218.5 L -16.4,-217.2 L -3.2,-215.7 L 9.8,-214.1 L 22.6,-212.3 L 35.4,-210.4 L 48.0,-208.4 L 60.8,-206.3 L 73.5,-204.1 L 86.4,-201.8 L 99.5,-199.2 L 112.6,-196.2 L 126.0,-192.9 L 139.4,-189.0 L 152.8,-184.6 L 166.2,-179.5 L 179.4,-173.6 L 192.3,-166.9 L 204.9,-159.4 L 216.9,-151.0 L 228.2,-141.7 L 238.7,-131.5 L 248.2,-120.6 L 256.6,-108.8 L 263.7,-96.5 L 269.6,-83.5 L 274.1,-70.2 L 277.2,-56.5 L 278.9,-42.6 L 279.2,-28.7 L 278.2,-14.9 L 275.8,-1.2 L 272.3,12.2 L 267.6,25.2 L 262.1,37.7 L 255.6,49.8 L 248.6,61.3 L 240.9,72.3 L 232.8,82.8 L 224.4,92.8 L 215.8,102.4 L 207.1,111.7 L 198.3,120.6 L 189.5,129.3 L 180.6,137.8 L 171.7,146.2 L 162.8,154.5 L 153.7,162.8 L 144.5,171.1 L 135.0,179.4 L 125.2,187.6 L 115.1,195.8 L 104.4,203.7 L 93.2,211.5 L 81.5,218.9 L 69.1,225.9 L 56.2,232.4 L 42.6,238.1 L 28.6,243.1 L 14.0,247.1 L -1.0,250.0 L -16.3,251.9 L -31.7,252.6 L -47.2,252.0" fill="none" stroke="url(#swirlRose)" stroke-width="1.6" opacity="0.14"/><path d="M -271.5,-26.6 L -273.3,-40.4 L -274.1,-54.5 L -273.7,-68.6 L -272.1,-82.8 L -269.2,-97.0 L -264.9,-110.8 L -259.3,-124.4 L -252.3,-137.4 L -244.0,-149.8 L -234.5,-161.4 L -223.8,-172.2 L -212.1,-182.1 L -199.4,-190.9 L -186.0,-198.7 L -172.0,-205.5 L -157.4,-211.1 L -142.6,-215.7 L -127.6,-219.4 L -112.5,-222.1 L -97.5,-224.0 L -82.6,-225.1 L -67.9,-225.6 L -53.4,-225.6 L -39.2,-225.1 L -25.3,-224.4 L -11.6,-223.3 L 1.9,-222.1 L 15.3,-220.8 L 28.6,-219.3 L 41.9,-217.8 L 55.1,-216.2 L 68.5,-214.4 L 82.1,-212.4 L 95.7,-210.1 L 109.6,-207.5 L 123.5,-204.5 L 137.6,-200.9 L 151.7,-196.7 L 165.8,-191.8 L 179.8,-186.0 L 193.4,-179.4 L 206.7,-171.9 L 219.4,-163.5 L 231.4,-154.1 L 242.5,-143.9 L 252.7,-132.7 L 261.7,-120.8 L 269.5,-108.1 L 275.9,-94.9 L 281.0,-81.1 L 284.6,-67.1 L 286.8,-52.7 L 287.5,-38.3 L 286.9,-24.0 L 284.9,-9.8 L 281.7,4.1 L 277.4,17.7 L 272.1,30.8 L 266.0,43.5 L 259.2,55.6 L 251.7,67.2 L 243.9,78.4 L 235.7,89.0 L 227.3,99.3 L 218.7,109.2 L 210.0,118.7 L 201.3,128.1 L 192.6,137.2 L 183.8,146.3 L 174.9,155.3 L 165.9,164.3 L 156.7,173.3 L 147.3,182.2 L 137.4,191.1 L 127.2,199.9 L 116.4,208.6 L 105.1,217.0 L 93.2,225.1 L 80.6,232.7 L 67.3,239.7 L 53.5,246.0 L 39.0,251.5 L 24.0,256.0 L 8.6,259.5 L -7.2,261.8 L -23.1,262.8 L -39.2,262.5 L -55.2,261.0 L -70.9,258.1 L -86.3,253.9" fill="none" stroke="url(#swirlRose)" stroke-width="1.1" opacity="0.12"/></svg>